<?xml version="1.0" standalone="no"?>
<!DOCTYPE svg PUBLIC "-//W3C//DTD SVG 1.1//EN" "http://www.w3.org/Graphics/SVG/1.1/DTD/svg11.dtd" >
<svg>
<metadata>
Created by FontForge 20110222 at Wed Jun  4 16:13:55 2014
 By deploy user
Copyright (c) 1988, 1990, 1993, 2003 Linotype Library GmbH, www.linotype.com. All rights reserved. Copyright (c) 1988, 1990, 1993 Adobe Systems Incorporated. All Rights Reserved.
</metadata>
<defs>
<font id="HelveticaNeueLTPro-LtExO" horiz-adv-x="184" >
  <font-face 
    font-family="HelveticaNeueLT Pro 43 LtEx"
    font-weight="300"
    font-style="italic"
    font-stretch="normal"
    units-per-em="1000"
    panose-1="2 11 5 3 2 2 2 2 2 4"
    ascent="714"
    descent="-286"
    x-height="520"
    cap-height="714"
    bbox="-166 -220 1279 1410"
    underline-thickness="50"
    underline-position="-50"
    slope="-12"
    unicode-range="U+000D-FB02"
  />
<missing-glyph horiz-adv-x="512" 
d="M222 117h56v67h-56v-67zM225 234h46q0 52 6 72q6 19 43 52q37 34 50 60t13 60q0 59 -35 95t-89 36q-56 0 -92 -34t-43 -103l50 -8q11 95 82 95q31 0 53.5 -24.5t22.5 -60.5q0 -20 -9.5 -37t-40.5 -46q-31 -31 -46 -59q-13 -25 -13 -81zM462 50h-412v617h412v-617z
M512 718h-512v-718h512v718z" />
    <glyph glyph-name="IJ" unicode="IJ" horiz-adv-x="780" 
d="M74 0l148 714h74l-148 -714h-74zM371 234l-5 -26q-36 -164 124 -164q80 0 127 38t68 138l103 494h74l-107 -514q-21 -100 -92.5 -159t-189.5 -59q-46 0 -80.5 10t-54.5 24t-32 38t-16.5 43t-3 49t3.5 45.5t7 42.5h74z" />
    <glyph glyph-name="ij" unicode="ij" horiz-adv-x="410" 
d="M181 610l23 110h74l-23 -110h-74zM55 0l108 520h74l-108 -520h-74zM407 610l23 110h74l-23 -110h-74zM105 -217l13 62q16 -3 50 -3q47 0 67 18.5t29 60.5l125 599h74l-125 -599q-28 -141 -163 -141q-1 0 -70 3z" />
    <glyph glyph-name="napostrophe" unicode="&#x22;n" horiz-adv-x="651" 
d="M520 0l69 335q15 74 -19 106.5t-109 32.5q-106 0 -169 -50t-82 -142l-58 -282h-74l108 520h74l-22 -102h2q29 47 94.5 82.5t145.5 35.5q227 0 180 -214l-66 -322h-74zM185 714l21 100h76l-19 -91q-16 -73 -96 -79l6 31q36 8 42 39h-30z" />
    <glyph glyph-name="fi" unicode="fi" horiz-adv-x="500" 
d="M497 610l23 110h74l-23 -110h-74zM371 0l108 520h74l-108 -520h-74zM107 0l96 464h-113l12 56h113l14 69q15 72 56 101.5t117 29.5q51 0 82 -4l-13 -62q-31 4 -68 4q-50 0 -70.5 -16t-31.5 -61l-12 -61h147l-12 -56h-147l-96 -464h-74z" />
    <glyph glyph-name="fl" unicode="fl" horiz-adv-x="500" 
d="M107 0l96 464h-113l12 56h113l14 69q15 72 56 101.5t117 29.5q51 0 82 -4l-13 -62q-31 4 -68 4q-50 0 -70.5 -16t-31.5 -61l-12 -61h147l-12 -56h-147l-96 -464h-74zM371 0l149 720h74l-149 -720h-74z" />
    <glyph glyph-name=".notdef" horiz-adv-x="512" 
d="M222 117h56v67h-56v-67zM225 234h46q0 52 6 72q6 19 43 52q37 34 50 60t13 60q0 59 -35 95t-89 36q-56 0 -92 -34t-43 -103l50 -8q11 95 82 95q31 0 53.5 -24.5t22.5 -60.5q0 -20 -9.5 -37t-40.5 -46q-31 -31 -46 -59q-13 -25 -13 -81zM462 50h-412v617h412v-617z
M512 718h-512v-718h512v718z" />
    <glyph glyph-name=".null" horiz-adv-x="500" 
 />
    <glyph glyph-name=".null" horiz-adv-x="500" 
 />
    <glyph glyph-name="nonmarkingreturn" horiz-adv-x="333" 
 />
    <glyph glyph-name="CR" unicode="&#xd;" horiz-adv-x="0" 
 />
    <glyph glyph-name="space" unicode=" " horiz-adv-x="278" 
 />
    <glyph glyph-name="exclam" unicode="!" horiz-adv-x="296" 
d="M164 185l53 340l39 189h80l-39 -189l-89 -340h-44zM105 0l22 110h86l-22 -110h-86z" />
    <glyph glyph-name="quotedbl" unicode="&#x22;" horiz-adv-x="407" 
d="M346 464l52 250h56l-52 -250h-56zM197 464l52 250h56l-52 -250h-56z" />
    <glyph glyph-name="numbersign" unicode="#" horiz-adv-x="668" 
d="M450 270l54 154h-142l-54 -154h142zM164 0l78 226h-114l10 44h120l54 154h-114l9 44h120l79 226h50l-79 -226h142l79 226h50l-79 -226h114l-9 -44h-120l-54 -154h114l-10 -44h-120l-78 -226h-50l78 226h-142l-78 -226h-50z" />
    <glyph glyph-name="dollar" unicode="$" horiz-adv-x="668" 
d="M317 52l57 273q-23 4 -39 7t-36.5 7.5t-35.5 9t-32 11t-28.5 14.5t-23.5 18t-18.5 22t-11 26t-4 32t4.5 38q20 100 105.5 147.5t198.5 50.5l12 61h56l-12 -61q52 -3 93 -15.5t73.5 -36.5t46 -65t3.5 -96h-74q9 73 -33.5 105.5t-122.5 39.5l-53 -255q147 -20 203.5 -63.5
t39.5 -122.5q-13 -59 -46 -102t-80.5 -66.5t-96.5 -34.5t-104 -12l-20 -97h-56l20 97q-278 14 -233 245h74q-19 -90 28.5 -130t144.5 -47zM428 317l-55 -265q87 0 151 32t79 102q10 53 -30 85t-145 46zM389 396l51 244q-87 -3 -142 -34t-67 -89q-11 -54 31.5 -80.5
t126.5 -40.5z" />
    <glyph glyph-name="percent" unicode="%" horiz-adv-x="963" 
d="M303 320q-77 0 -116 50.5t-19 143.5t79 143.5t137 50.5t116 -50.5t18 -143.5t-78.5 -143.5t-136.5 -50.5zM722 -16q-78 0 -116 50.5t-18 143.5t78.5 143.5t136.5 50.5q77 0 116 -50.5t19 -143.5t-79 -143.5t-137 -50.5zM313 370q54 0 91.5 38t51.5 106t-7.5 106t-75.5 38
t-91.5 -38t-51.5 -106t7.5 -106t75.5 -38zM209 -16l627 724h59l-627 -724h-59zM733 34q54 0 91.5 38t51.5 106t-8 106t-76 38t-91 -37.5t-51 -106.5q-14 -68 7.5 -106t75.5 -38z" />
    <glyph glyph-name="ampersand" unicode="&#x26;" horiz-adv-x="778" 
d="M576 565q9 37 -14 62t-80 25q-41 0 -75 -23t-42 -60q-2 -14 -2 -22q0 -37 61 -112q135 53 152 130zM698 0l-75 89q-48 -48 -124.5 -76.5t-161.5 -28.5q-132 0 -188.5 58.5t-37.5 154.5q16 73 71.5 121t171.5 91q-37 41 -52 76t-6 81q14 66 70.5 107t134.5 41
q90 0 122.5 -43.5t21.5 -101.5q-21 -107 -185 -173l176 -207q19 20 37.5 57.5t25.5 62.5h68q-7 -32 -31.5 -78.5t-60.5 -86.5l124 -144h-101zM585 132l-198 234q-94 -33 -142 -73.5t-60 -99.5q-13 -61 29 -104t140 -43q66 0 120 19t111 67z" />
    <glyph glyph-name="quotesingle" unicode="'" horiz-adv-x="278" 
d="M207 464l52 250h56l-52 -250h-56z" />
    <glyph glyph-name="parenleft" unicode="(" horiz-adv-x="352" 
d="M410 714h56q-45 -49 -71 -80.5t-68 -92t-71 -130.5t-46 -149q-14 -64 -15 -125.5t4.5 -103.5t22 -91t27 -71.5t29.5 -60.5h-56q0 1 -5.5 9.5t-13 21.5t-18 32.5t-19.5 43.5t-18.5 52.5t-15 62.5t-8.5 69.5t0 77t12 83.5q15 72 47.5 145t68.5 124.5t72.5 94.5t58 64
t27.5 24z" />
    <glyph glyph-name="parenright" unicode=")" horiz-adv-x="352" 
d="M50 -190h-55q35 38 54.5 61t55.5 71t59 90.5t47.5 104t38.5 125.5t15 125.5t-4.5 103.5t-22 91t-27 71.5t-29.5 60.5h56l5 -8q5 -8 11 -18t15 -27t17 -35.5t16.5 -43.5t15.5 -51t11.5 -58t6 -64.5t-1 -70.5t-10.5 -76q-18 -85 -58.5 -167.5t-86.5 -140.5t-76 -90.5
t-49 -50.5q-3 -2 -4 -3z" />
    <glyph glyph-name="asterisk" unicode="*" horiz-adv-x="426" 
d="M305 580l28 134h56l-28 -134l137 48l10 -49l-143 -50l71 -103l-45 -36l-75 109l-119 -109l-31 36l113 103l-121 50l30 49z" />
    <glyph glyph-name="plus" unicode="+" horiz-adv-x="600" 
d="M275 0l47 228h-228l10 50h228l48 228h50l-48 -228h228l-10 -50h-228l-47 -228h-50z" />
    <glyph glyph-name="comma" unicode="," horiz-adv-x="278" 
d="M96 0l22 110h86l-23 -112q-23 -113 -124 -138l8 38q31 13 44.5 36t22.5 66h-36z" />
    <glyph glyph-name="hyphen" unicode="-" horiz-adv-x="444" 
d="M168 237l30 74h304l-30 -74h-304z" />
    <glyph glyph-name="period" unicode="." horiz-adv-x="278" 
d="M96 0l22 110h86l-22 -110h-86z" />
    <glyph glyph-name="slash" unicode="/" horiz-adv-x="407" 
d="M0 -18l499 750h56l-499 -750h-56z" />
    <glyph glyph-name="zero" unicode="0" horiz-adv-x="668" 
d="M481 708q135 0 194.5 -90t21.5 -273q-38 -181 -135 -271t-232 -90q-134 0 -194.5 90.5t-22.5 270.5q38 183 135 273t233 90zM468 646q-116 0 -183 -79t-98 -222q-14 -68 -14 -121q0 -178 170 -178q217 0 280 299q65 301 -155 301z" />
    <glyph glyph-name="one" unicode="1" horiz-adv-x="444" 
d="M236 0l108 520h-216l11 56h49q92 0 133.5 24t73.5 108h62l-147 -708h-74z" />
    <glyph glyph-name="two" unicode="2" horiz-adv-x="668" 
d="M608 68l-14 -68h-542q22 76 83 139.5t221 139.5q139 65 191.5 107t66.5 109q17 76 -21.5 113.5t-123.5 37.5q-190 0 -233 -189h-74q25 128 109.5 189.5t211.5 61.5q55 0 96 -12.5t64 -33.5t36.5 -49t13.5 -58t-5 -61q-9 -44 -28.5 -78t-52 -61t-62 -44.5t-77.5 -41.5
q-169 -82 -229 -120.5t-81 -80.5h450z" />
    <glyph glyph-name="three" unicode="3" horiz-adv-x="668" 
d="M351 336l13 62h48q88 0 138 26.5t63 91.5q14 64 -25 97t-116 33q-196 0 -232 -171h-74q24 102 105 167.5t214 65.5q101 0 162 -47.5t40 -144.5q-11 -52 -54.5 -93t-105.5 -49v-2q67 -6 101.5 -53t18.5 -123q-23 -111 -110 -161.5t-212 -50.5q-137 0 -194.5 61.5
t-34.5 179.5h74q-15 -96 29.5 -137.5t149.5 -41.5q103 0 156.5 42.5t67.5 105.5q9 42 0 71t-33.5 44t-55.5 21t-73 6h-60z" />
    <glyph glyph-name="four" unicode="4" horiz-adv-x="668" 
d="M418 0l36 174h-376l14 68l476 466h65l-98 -472h132l-13 -62h-132l-36 -174h-68zM467 236l76 368h-2l-376 -368h302z" />
    <glyph glyph-name="five" unicode="5" horiz-adv-x="668" 
d="M139 326l146 366h417l-13 -62h-361l-96 -229l1 -2q85 68 196 68q128 0 185 -65.5t35 -175.5q-9 -42 -30 -81t-58 -77t-99 -61t-140 -23q-126 0 -184 56.5t-48 158.5h74q-3 -77 38 -115t133 -38q90 0 156.5 45.5t83.5 134.5q18 85 -26.5 132t-143.5 47q-115 0 -197 -82z
" />
    <glyph glyph-name="six" unicode="6" horiz-adv-x="668" 
d="M187 226q-14 -73 25 -126.5t139 -53.5q85 0 150.5 48t83.5 130q16 77 -26.5 127.5t-133.5 50.5q-58 0 -103.5 -17.5t-72 -46t-41 -56t-21.5 -56.5zM704 528h-74q7 56 -31.5 87t-122.5 31q-107 0 -175.5 -72t-107.5 -237l1 -2q36 50 97.5 89.5t146.5 39.5
q124 0 184.5 -63.5t36.5 -177.5q-23 -114 -113.5 -176.5t-207.5 -62.5q-288 0 -217 338q38 181 130 283.5t238 102.5q121 0 172.5 -52t42.5 -128z" />
    <glyph glyph-name="seven" unicode="7" horiz-adv-x="593" 
d="M695 692l-14 -68q-42 -31 -96.5 -86t-120.5 -134.5t-128.5 -187t-100.5 -216.5h-80q52 162 191 344.5t264 279.5h-454l14 68h525z" />
    <glyph glyph-name="eight" unicode="8" horiz-adv-x="668" 
d="M418 408q88 0 140 31.5t62 83.5q14 67 -31 95t-121 28q-48 0 -87 -9.5t-73 -38.5t-44 -75q-10 -53 28 -84t126 -31zM88 193q29 145 205 185l1 2q-22 7 -35.5 13t-36 22.5t-30.5 45t-1 66.5q7 32 24 61t49 57.5t88 45.5t129 17q59 0 102.5 -11.5t66 -30.5t36 -42.5
t13 -48.5t-3.5 -48q-21 -111 -163 -147l-1 -2q12 -3 21.5 -6t24.5 -9.5t25 -13t23.5 -17.5t19.5 -24t13.5 -30.5t6 -38t-4.5 -46.5q-9 -39 -30 -73.5t-58 -66.5t-99.5 -50.5t-142.5 -18.5q-64 0 -112.5 12.5t-75 33.5t-42.5 48t-16 56.5t4 58.5zM162 193q-15 -74 35 -110.5
t146 -36.5t162 36.5t81 110.5q15 76 -36 114.5t-145 38.5t-161 -38.5t-82 -114.5z" />
    <glyph glyph-name="nine" unicode="9" horiz-adv-x="668" 
d="M623 466q10 45 -1 84.5t-52.5 67.5t-109.5 28q-85 0 -150.5 -48t-83.5 -130q-16 -78 26.5 -128t133.5 -50q58 0 103.5 17.5t72 45.5t41.5 56t20 57zM107 164h74q-7 -56 31.5 -87t122.5 -31q107 0 175.5 71.5t107.5 237.5l-1 2q-99 -129 -244 -129q-124 0 -184.5 63.5
t-36.5 177.5q23 114 113.5 176.5t207.5 62.5q288 0 216 -338q-38 -181 -130 -283.5t-237 -102.5q-121 0 -172.5 52t-42.5 128z" />
    <glyph glyph-name="colon" unicode=":" horiz-adv-x="278" 
d="M178 396l23 110h86l-23 -110h-86zM96 0l22 110h86l-22 -110h-86z" />
    <glyph glyph-name="semicolon" unicode=";" horiz-adv-x="278" 
d="M260 396l46 110h86l-46 -110h-86zM96 0l44 110h86l-46 -112q-47 -113 -153 -138l16 38q33 13 51 35.5t38 66.5h-36z" />
    <glyph glyph-name="semicolon" unicode="&#x37e;" horiz-adv-x="278" 
d="M260 396l46 110h86l-46 -110h-86zM96 0l44 110h86l-46 -112q-47 -113 -153 -138l16 38q33 13 51 35.5t38 66.5h-36z" />
    <glyph glyph-name="less" unicode="&#x3c;" horiz-adv-x="600" 
d="M93 225l12 56l554 233l-11 -56l-487 -205l401 -205l-11 -56z" />
    <glyph glyph-name="equal" unicode="=" horiz-adv-x="600" 
d="M74 131l10 50h506l-10 -50h-506zM114 325l10 50h506l-10 -50h-506z" />
    <glyph glyph-name="greater" unicode="&#x3e;" horiz-adv-x="600" 
d="M543 253l-401 205l11 56l458 -233l-12 -56l-554 -233l11 56z" />
    <glyph glyph-name="question" unicode="?" horiz-adv-x="648" 
d="M262 0l22 110h86l-22 -110h-86zM230 491h-74q21 105 102 173t207 68q109 0 172.5 -52.5t43.5 -153.5q-13 -64 -51.5 -102t-133.5 -97q-72 -44 -90.5 -67t-28.5 -75h-68q15 76 39 103.5t134 98.5q30 19 43.5 28.5t34 27.5t31 38t16.5 45q14 62 -31 100t-125 38
q-93 0 -148.5 -47t-72.5 -126z" />
    <glyph glyph-name="at" unicode="@" horiz-adv-x="800" 
d="M643 494l38 67h56l-161 -298q-21 -44 -24 -60q-8 -26 20 -26q62 0 133 82t88 164q25 116 -45 190.5t-186 74.5q-138 0 -252.5 -98.5t-141.5 -232.5q-29 -137 46 -234t210 -97q79 0 160 38.5t135 102.5h56q-65 -84 -163 -134.5t-197 -50.5q-105 0 -180.5 51t-106.5 137
t-10 187q32 156 164.5 265.5t288.5 109.5q141 0 220.5 -89t51.5 -223q-23 -113 -115.5 -200t-174.5 -87q-29 0 -43.5 17.5t-8.5 51.5h-2q-76 -69 -149 -69q-63 0 -90.5 42.5t-15.5 106.5q23 111 112 204t195 93q77 0 92 -85zM307 287q-21 -104 62 -104q71 0 142.5 85
t86.5 162q11 51 -3.5 75t-58.5 24q-73 0 -143 -81t-86 -161z" />
    <glyph glyph-name="A" unicode="A" horiz-adv-x="722" 
d="M642 0l-50 217h-376l-142 -217h-80l472 714h86l176 -714h-86zM576 285l-83 355l-233 -355h316z" />
    <glyph glyph-name="B" unicode="B" horiz-adv-x="741" 
d="M209 336l-55 -268h311q167 0 196 136q15 73 -18.5 102.5t-104.5 29.5h-329zM274 646l-51 -242h293q164 0 191 127q25 115 -115 115h-318zM66 0l148 714h406q100 0 139.5 -49.5t22.5 -130.5q-12 -55 -51.5 -97t-103.5 -56l-1 -2q68 -11 98.5 -58t16.5 -117
q-11 -53 -40.5 -94t-69 -64t-82 -34.5t-86.5 -11.5h-397z" />
    <glyph glyph-name="C" unicode="C" horiz-adv-x="815" 
d="M756 272h74q-37 -124 -150.5 -207t-262.5 -83q-174 0 -256 101.5t-46 273.5q14 66 48 128.5t88.5 119.5t138 92t183.5 35q61 0 114 -14.5t96.5 -44t66 -81t16.5 -119.5h-74q4 96 -62 143.5t-171 47.5q-138 0 -235.5 -78t-128.5 -229q-15 -60 -7.5 -115t31.5 -98
t78.5 -68.5t133.5 -25.5q238 0 325 222z" />
    <glyph glyph-name="D" unicode="D" horiz-adv-x="778" 
d="M274 646l-120 -578h270q50 0 94.5 15t85.5 47t72 90t47 137q60 289 -179 289h-270zM66 0l148 714h347q154 0 215 -93.5t27 -263.5q-34 -157 -134 -257t-245 -100h-358z" />
    <glyph glyph-name="E" unicode="E" horiz-adv-x="685" 
d="M78 0l148 714h568l-14 -68h-494l-51 -242h476l-14 -68h-476l-55 -268h502l-14 -68h-576z" />
    <glyph glyph-name="F" unicode="F" horiz-adv-x="611" 
d="M66 0l148 714h535l-14 -68h-461l-51 -242h438l-14 -68h-438l-69 -336h-74z" />
    <glyph glyph-name="G" unicode="G" horiz-adv-x="852" 
d="M729 0l18 135h-2q-74 -80 -150 -116.5t-179 -36.5q-178 0 -255.5 102t-40.5 273q34 165 159.5 270t300.5 105q144 0 222 -70t72 -174h-80q-4 88 -65.5 132t-162.5 44q-145 0 -240.5 -82t-125.5 -225q-30 -146 26.5 -226.5t197.5 -80.5q262 0 356 250h-262l14 68h330
l-76 -368h-57z" />
    <glyph glyph-name="H" unicode="H" horiz-adv-x="796" 
d="M66 0l148 714h74l-63 -302h516l63 302h74l-148 -714h-74l71 344h-516l-71 -344h-74z" />
    <glyph glyph-name="I" unicode="I" horiz-adv-x="222" 
d="M74 0l148 714h74l-148 -714h-74z" />
    <glyph glyph-name="J" unicode="J" horiz-adv-x="556" 
d="M147 234l-5 -26q-36 -164 124 -164q80 0 127 38t68 138l103 494h74l-107 -514q-21 -100 -92.5 -159t-189.5 -59q-46 0 -80.5 10t-54.5 24t-32 38t-16.5 43t-3 49t3.5 45.5t7 42.5h74z" />
    <glyph glyph-name="K" unicode="K" horiz-adv-x="741" 
d="M78 0l148 714h74l-80 -386l541 386h107l-415 -295l291 -419h-105l-255 369l-182 -128l-50 -241h-74z" />
    <glyph glyph-name="L" unicode="L" horiz-adv-x="593" 
d="M66 0l148 714h74l-134 -646h453l-14 -68h-527z" />
    <glyph glyph-name="M" unicode="M" horiz-adv-x="981" 
d="M511 93l447 621h105l-148 -714h-74l128 617h-2l-443 -617h-68l-186 618h-2l-128 -618h-74l148 714h108z" />
    <glyph glyph-name="N" unicode="N" horiz-adv-x="796" 
d="M66 0l148 714h89l372 -610h2l127 610h74l-148 -714h-86l-376 610h-2l-126 -610h-74z" />
    <glyph glyph-name="O" unicode="O" horiz-adv-x="852" 
d="M192 357q-15 -81 -3 -139t49 -95.5t87 -55t111 -17.5q129 0 234.5 77.5t137.5 229.5q30 152 -42.5 229.5t-201.5 77.5q-82 0 -156 -30.5t-135 -102t-81 -174.5zM112 357q24 121 98 208t169 127t199 40q163 0 254.5 -97.5t55.5 -277.5q-25 -121 -99 -208t-168 -127
t-199 -40q-78 0 -141.5 23t-109.5 70t-61.5 117t2.5 165z" />
    <glyph glyph-name="P" unicode="P" horiz-adv-x="704" 
d="M78 0l148 714h385q91 0 142.5 -50.5t29.5 -155.5q-21 -102 -96 -155t-195 -53h-278l-62 -300h-74zM286 646l-58 -278h286q88 0 132 36.5t57 103.5q15 76 -16 107t-100 31h-301z" />
    <glyph glyph-name="Q" unicode="Q" horiz-adv-x="852" 
d="M791 -14l-50 -49l-103 95q-97 -50 -216 -50q-78 0 -141.5 23t-109.5 70t-61.5 117t2.5 165q24 121 98 208t169 127t199 40q163 0 254.5 -97.5t55.5 -277.5q-40 -189 -187 -288zM507 152l49 49l94 -86q124 80 158 242q30 152 -42.5 229.5t-201.5 77.5q-82 0 -156 -30.5
t-135 -102t-81 -174.5q-15 -81 -3 -139t49 -95.5t87 -55t111 -17.5q80 0 149 30z" />
    <glyph glyph-name="R" unicode="R" horiz-adv-x="741" 
d="M286 646l-55 -264h313q152 0 183 139q25 125 -121 125h-320zM78 0l148 714h389q38 0 69 -5.5t59.5 -19t44.5 -35.5t23 -55t-4 -78q-13 -61 -59.5 -109t-116.5 -64l-1 -2q69 -11 86.5 -61t-0.5 -137q-22 -126 -5 -148h-80q-13 18 11 146q18 94 -13 131t-125 37h-287
l-65 -314h-74z" />
    <glyph glyph-name="S" unicode="S" horiz-adv-x="668" 
d="M730 510h-74q11 85 -42 119.5t-150 34.5q-89 0 -153 -34t-76 -92q-13 -65 38.5 -92.5t192.5 -51.5q24 -4 41.5 -7.5t40 -9t38 -11.5t34 -14.5t28.5 -18.5t22 -23.5t15 -28.5t6 -34.5t-4 -41.5q-13 -63 -48.5 -108.5t-85.5 -69.5t-101.5 -34.5t-108.5 -10.5
q-146 0 -219 59t-52 195h74q-13 -105 42 -145.5t169 -40.5q94 0 162 32.5t85 109.5q8 36 -5 61t-47 39.5t-67 22t-85 16.5q-17 3 -26 4q-129 21 -183.5 64t-37.5 126q15 74 68.5 122.5t117.5 66.5t139 18q46 0 85.5 -6.5t75 -23t58 -41t32 -63.5t1.5 -88z" />
    <glyph glyph-name="T" unicode="T" horiz-adv-x="630" 
d="M278 0l134 646h-280l14 68h634l-14 -68h-280l-134 -646h-74z" />
    <glyph glyph-name="U" unicode="U" horiz-adv-x="778" 
d="M856 714l-91 -438q-9 -45 -22.5 -81.5t-41.5 -78t-67.5 -69.5t-103.5 -46.5t-145 -18.5t-137.5 18.5t-84 47t-39 69.5t-9.5 77.5t12 81.5l91 438h74l-91 -438q-14 -56 -6.5 -95.5t23.5 -65t47 -40t62.5 -20t71.5 -5.5q244 0 292 226l91 438h74z" />
    <glyph glyph-name="V" unicode="V" horiz-adv-x="685" 
d="M364 84l404 630h80l-464 -714h-80l-171 714h86z" />
    <glyph glyph-name="W" unicode="W" horiz-adv-x="1056" 
d="M807 98l328 616h80l-388 -714h-86l-89 610h-2l-338 -610h-86l-89 714h83l70 -616h2l339 616h91l83 -616h2z" />
    <glyph glyph-name="X" unicode="X" horiz-adv-x="667" 
d="M-8 0l365 362l-205 352h99l171 -294l300 294h92l-352 -348l213 -366h-98l-181 307l-309 -307h-95z" />
    <glyph glyph-name="Y" unicode="Y" horiz-adv-x="686" 
d="M306 0l62 300l-235 414h96l191 -340l333 340h96l-407 -414l-62 -300h-74z" />
    <glyph glyph-name="Z" unicode="Z" horiz-adv-x="648" 
d="M5 0l14 68l650 578h-496l14 68h596l-14 -68l-653 -578h541l-14 -68h-638z" />
    <glyph glyph-name="bracketleft" unicode="[" horiz-adv-x="352" 
d="M68 -190l188 904h196l-12 -56h-128l-164 -792h128l-12 -56h-196z" />
    <glyph glyph-name="backslash" unicode="\" horiz-adv-x="407" 
d="M344 -18l-189 750h56l189 -750h-56z" />
    <glyph glyph-name="bracketright" unicode="]" horiz-adv-x="352" 
d="M392 714l-188 -904h-196l12 56h128l164 792h-128l12 56h196z" />
    <glyph glyph-name="asciicircum" unicode="^" horiz-adv-x="600" 
d="M549 239l-119 391l-281 -391h-56l325 453h50l137 -453h-56z" />
    <glyph glyph-name="underscore" unicode="_" horiz-adv-x="500" 
d="M-25 -125l10 50h499l-10 -50h-499z" />
    <glyph glyph-name="grave" unicode="`" 
d="M194 741l86 -142h-61l-116 142h91z" />
    <glyph glyph-name="a" unicode="a" horiz-adv-x="611" 
d="M195 360h-68q28 88 93 132t192 44t175 -38.5t31 -115.5l-57 -272q-7 -32 0 -45t29 -13q14 0 40 2l-11 -50q-40 -8 -63 -8q-34 0 -50.5 14.5t-15 35t4.5 42.5h-2q-89 -104 -265 -104q-80 0 -132.5 38t-36.5 118q8 40 31 70t50.5 46.5t67 27t71 14t72.5 5.5q121 6 155 18
t42 51q11 56 -23.5 79t-127.5 23q-89 0 -137 -26t-65 -88zM512 201l17 79q-26 -15 -70.5 -21.5t-168.5 -17.5q-69 -6 -108 -28.5t-48 -67.5q-11 -57 25 -81t103 -24q83 0 159 43t91 118z" />
    <glyph glyph-name="b" unicode="b" horiz-adv-x="667" 
d="M181 260q-21 -99 28.5 -156.5t144.5 -57.5q105 0 170.5 63t83.5 151q20 97 -27.5 155.5t-137.5 58.5q-106 0 -175.5 -63t-86.5 -151zM57 0l149 720h74l-63 -304h2q37 52 101.5 86t135.5 34q138 0 194 -79.5t32 -196.5q-10 -51 -35 -97.5t-65 -87.5t-102.5 -66t-138.5 -25
q-84 0 -130.5 38.5t-56.5 81.5h-2l-21 -104h-74z" />
    <glyph glyph-name="c" unicode="c" horiz-adv-x="611" 
d="M550 186h74q-13 -31 -34 -61t-57 -64.5t-91.5 -55.5t-122.5 -21q-138 0 -200 75.5t-35 200.5q25 123 116 199.5t234 76.5q64 0 110 -18t69 -47.5t32.5 -59.5t8.5 -61h-74q-6 124 -159 124q-107 0 -175.5 -60t-87.5 -154q-21 -98 24.5 -156t149.5 -58q78 0 134 38t84 102z
" />
    <glyph glyph-name="d" unicode="d" horiz-adv-x="667" 
d="M536 0l21 104h-2q-29 -44 -91 -82t-146 -38q-62 0 -108 16.5t-71 44t-39.5 63.5t-13.5 74.5t7 77.5q24 117 113 196.5t227 79.5q71 0 120.5 -34t66.5 -86h2l63 304h74l-149 -720h-74zM594 260q17 88 -25.5 151t-148.5 63q-90 0 -161.5 -58.5t-91.5 -155.5
q-10 -39 -4.5 -77.5t21.5 -68.5t54 -49t93 -19q96 0 169 57t94 157z" />
    <glyph glyph-name="e" unicode="e" horiz-adv-x="648" 
d="M562 166h74q-41 -78 -120.5 -130t-197.5 -52q-62 0 -108 16.5t-71 44t-39.5 63.5t-13.5 74.5t7 77.5q24 117 113 196.5t227 79.5q36 0 67.5 -5.5t63 -18.5t53.5 -35t39 -54.5t18 -77t-9 -103.5h-502q-19 -84 26.5 -140t141.5 -56q90 0 144 29t87 91zM174 298h428
q4 90 -46 133t-131 43q-80 0 -150.5 -43.5t-100.5 -132.5z" />
    <glyph glyph-name="f" unicode="f" horiz-adv-x="315" 
d="M107 0l96 464h-113l12 56h113l14 69q15 72 56 101.5t117 29.5q51 0 82 -4l-13 -62q-31 4 -68 4q-50 0 -70.5 -16t-31.5 -61l-12 -61h147l-12 -56h-147l-96 -464h-74z" />
    <glyph glyph-name="g" unicode="g" horiz-adv-x="667" 
d="M625 419l21 101h74l-104 -500q-14 -69 -50 -118t-85.5 -74.5t-100 -36.5t-106.5 -11q-57 0 -100 8.5t-66.5 22.5t-40 32.5t-19.5 37t-6 36.5t1 32h68q0 -22 1.5 -34t10.5 -29.5t26.5 -26.5t52.5 -16t86 -7q104 0 169.5 48t85.5 141l19 93h-2q-89 -118 -254 -118
q-52 0 -95.5 14t-79.5 45.5t-47 83.5t2 128q24 112 112 188.5t227 76.5q78 0 131 -29.5t67 -87.5h2zM596 271q19 86 -27.5 144.5t-152.5 58.5q-99 0 -167.5 -54t-88.5 -149q-23 -108 26 -158.5t150 -50.5q94 0 166.5 56t93.5 153z" />
    <glyph glyph-name="h" unicode="h" horiz-adv-x="630" 
d="M57 0l149 720h74l-63 -302h2q29 47 94.5 82.5t145.5 35.5q227 0 180 -214l-66 -322h-74l69 335q15 74 -19 106.5t-109 32.5q-106 0 -169 -50t-82 -142l-58 -282h-74z" />
    <glyph glyph-name="i" unicode="i" 
d="M181 610l23 110h74l-23 -110h-74zM55 0l108 520h74l-108 -520h-74z" />
    <glyph glyph-name="j" unicode="j" 
d="M181 610l23 110h74l-23 -110h-74zM-121 -217l13 62q16 -3 50 -3q47 0 67 18.5t29 60.5l125 599h74l-125 -599q-28 -141 -163 -141q-1 0 -70 3z" />
    <glyph glyph-name="k" unicode="k" horiz-adv-x="574" 
d="M57 0l149 720h74l-94 -453l370 253h110l-296 -197l207 -323h-98l-174 275l-136 -89l-38 -186h-74z" />
    <glyph glyph-name="l" unicode="l" 
d="M55 0l149 720h74l-149 -720h-74z" />
    <glyph glyph-name="m" unicode="m" horiz-adv-x="1000" 
d="M869 0l68 330q15 73 -15 108.5t-110 35.5q-85 0 -140.5 -45t-71.5 -122l-63 -307h-74l73 352q10 53 -21 87.5t-102 34.5q-83 0 -144 -47t-78 -134l-60 -293h-74l108 520h74l-20 -96h2q86 112 229 112q80 0 119 -34t43 -80q30 44 93 79t135 35q106 0 150.5 -48.5
t25.5 -132.5l-73 -355h-74z" />
    <glyph glyph-name="n" unicode="n" horiz-adv-x="630" 
d="M499 0l69 335q15 74 -19 106.5t-109 32.5q-106 0 -169 -50t-82 -142l-58 -282h-74l108 520h74l-22 -102h2q29 47 94.5 82.5t145.5 35.5q227 0 180 -214l-66 -322h-74z" />
    <glyph glyph-name="o" unicode="o" horiz-adv-x="668" 
d="M93 260q24 117 117 196.5t235 79.5q143 0 202.5 -79.5t35.5 -196.5q-26 -117 -118.5 -196.5t-234.5 -79.5q-143 0 -203 80t-34 196zM167 260q-20 -95 26.5 -154.5t149.5 -59.5q102 0 174 59.5t92 154.5t-27.5 154.5t-149.5 59.5q-103 0 -174 -59.5t-91 -154.5z" />
    <glyph glyph-name="p" unicode="p" horiz-adv-x="667" 
d="M181 260q-20 -87 23.5 -150.5t149.5 -63.5q90 0 161.5 58.5t92.5 155.5q10 39 4 77.5t-22 68.5t-54.5 49t-92.5 19q-95 0 -168.5 -57.5t-93.5 -156.5zM15 -202l150 722h74l-22 -104h2q84 120 237 120q76 0 128.5 -25.5t74 -65t29 -88.5t-5.5 -97q-26 -118 -114.5 -197
t-226.5 -79q-71 0 -122 34.5t-65 85.5h-2l-63 -306h-74z" />
    <glyph glyph-name="q" unicode="q" horiz-adv-x="667" 
d="M594 260q20 100 -29.5 157t-144.5 57q-106 0 -170.5 -63t-82.5 -151q-21 -97 26.5 -155.5t137.5 -58.5q106 0 174.5 62.5t88.5 151.5zM622 416l22 104h74l-150 -722h-74l63 306h-2q-37 -51 -102 -85.5t-135 -34.5q-138 0 -194.5 79.5t-30.5 196.5q10 50 36.5 97t67 88
t100.5 66t130 25q87 0 136.5 -38t56.5 -82h2z" />
    <glyph glyph-name="r" unicode="r" horiz-adv-x="370" 
d="M57 0l108 520h74l-25 -119h2q39 59 92 97t135 38q28 0 43 -4l-16 -76q-33 6 -66 6q-70 0 -133.5 -48t-84.5 -149l-55 -265h-74z" />
    <glyph glyph-name="s" unicode="s" horiz-adv-x="556" 
d="M588 366h-68q-2 61 -38 84.5t-119 23.5q-148 0 -168 -89q-10 -39 23.5 -54.5t151.5 -31.5q122 -17 165 -47t28 -103q-16 -79 -87.5 -122t-193.5 -43q-127 0 -186.5 44t-39.5 135h68q-4 -65 34 -91t137 -26q84 0 133.5 21.5t60.5 77.5q8 40 -28.5 59.5t-151.5 31.5
q-120 12 -161.5 44.5t-27.5 101.5q14 70 80 112t176 42q122 0 172 -43t40 -127z" />
    <glyph glyph-name="t" unicode="t" horiz-adv-x="352" 
d="M215 520l34 164h74l-34 -164h147l-12 -56h-147l-72 -344q-7 -36 5.5 -51t55.5 -15q44 0 74 6l-13 -62q-43 -6 -82 -6q-81 0 -104 31t-9 98l71 343h-113l12 56h113z" />
    <glyph glyph-name="u" unicode="u" horiz-adv-x="630" 
d="M499 0l21 102h-2q-29 -47 -94.5 -82.5t-145.5 -35.5q-122 0 -161.5 56.5t-18.5 157.5l67 322h74l-70 -335q-28 -139 128 -139q106 0 169 50t82 142l59 282h74l-108 -520h-74z" />
    <glyph glyph-name="v" unicode="v" horiz-adv-x="556" 
d="M295 85l295 435h80l-352 -520h-80l-136 520h80z" />
    <glyph glyph-name="w" unicode="w" horiz-adv-x="889" 
d="M662 97l255 423h80l-319 -520h-80l-71 416l-241 -416h-80l-98 520h80l76 -426l246 426h80z" />
    <glyph glyph-name="x" unicode="x" horiz-adv-x="574" 
d="M-3 0l295 270l-170 250h96l134 -198l217 198h97l-277 -250l188 -270h-98l-149 216l-236 -216h-97z" />
    <glyph glyph-name="y" unicode="y" horiz-adv-x="556" 
d="M304 87l286 433h80l-411 -617q-42 -62 -77 -83.5t-96 -21.5h-36q-13 0 -35 2l13 62q32 -2 52 -2q41 0 66.5 13t50.5 51l49 72l-144 524h80z" />
    <glyph glyph-name="z" unicode="z" horiz-adv-x="556" 
d="M20 0l12 62l478 396h-372l13 62h478l-13 -62l-486 -396h418l-12 -62h-516z" />
    <glyph glyph-name="braceleft" unicode="{" horiz-adv-x="352" 
d="M98 243l8 38q35 0 54 28.5t34 108.5l37 175q24 121 132 121h58l-8 -38h-49q-25 0 -40.5 -17.5t-24.5 -65.5l-37 -175q-14 -71 -45.5 -109.5t-64.5 -45.5v-2q29 -7 44.5 -45.5t1.5 -109.5l-37 -175q-9 -50 -1.5 -66.5t32.5 -16.5h49l-8 -38h-58q-106 0 -82 121l37 175
q11 56 11 84.5t-9.5 40.5t-33.5 12z" />
    <glyph glyph-name="bar" unicode="|" horiz-adv-x="222" 
d="M82 -18l156 750h50l-156 -750h-50z" />
    <glyph glyph-name="braceright" unicode="}" horiz-adv-x="352" 
d="M39 -190l8 38h49q24 0 39 18t26 65l37 175q13 71 45 109.5t65 45.5v2q-29 7 -44.5 45.5t-1.5 109.5l37 175q5 28 5 41q0 24 -9 33t-27 9h-49l8 38h58q106 0 82 -121l-37 -175q-11 -56 -11 -84.5t9.5 -40.5t33.5 -12l-8 -38q-35 0 -54 -28.5t-34 -108.5l-37 -175
q-24 -121 -132 -121h-58z" />
    <glyph glyph-name="asciitilde" unicode="~" horiz-adv-x="600" 
d="M560 316l29 -36q-26 -28 -42 -43t-44 -29t-57 -14q-45 0 -95 33q-53 35 -108 35q-52 0 -99 -72l-29 36q66 86 143 86q39 0 105 -32q6 -3 19.5 -10t20.5 -10t18 -7.5t19.5 -6.5t16.5 -2q43 0 103 72z" />
    <glyph glyph-name="uni00A0" unicode="&#xa0;" horiz-adv-x="278" 
 />
    <glyph glyph-name="exclamdown" unicode="&#xa1;" horiz-adv-x="296" 
d="M70 -178l40 189l88 340h44l-52 -340l-40 -189h-80zM193 426l23 110h86l-23 -110h-86z" />
    <glyph glyph-name="cent" unicode="&#xa2;" horiz-adv-x="668" 
d="M295 -124l22 109q-124 8 -177.5 82.5t-29.5 192.5q9 44 31.5 87.5t60.5 85.5t97.5 70t132.5 33l17 84h44l-17 -84q58 -3 100.5 -22t64 -47.5t31 -57.5t8.5 -59h-74q-6 117 -143 124l-89 -428q143 10 202 140h74q-13 -30 -33 -59t-54 -62.5t-86.5 -55.5t-115.5 -25
l-22 -108h-44zM330 47l89 426q-97 -9 -157 -68.5t-78 -144.5q-19 -91 18.5 -148t127.5 -65z" />
    <glyph glyph-name="sterling" unicode="&#xa3;" horiz-adv-x="668" 
d="M119 320l9 44h72q-8 23 -11 32.5t-8.5 31.5t-4 32t2.5 34q20 94 104.5 154t209.5 60q130 0 186 -61.5t34 -168.5h-74q9 45 -2 79t-37 52.5t-58 27.5t-68 9q-75 0 -141 -40t-79 -108q-6 -18 -3 -41.5t6.5 -38t9.5 -32t7 -22.5h221l-9 -44h-203q12 -46 1 -93
q-7 -38 -49 -87t-88 -76l1 -2q76 28 119 28q27 0 101 -19t92 -19q63 0 161 65l12 -62q-23 -23 -79.5 -47t-107.5 -24q-36 0 -114 22t-107 22q-67 0 -147 -42l-24 57q56 33 104 84.5t59 103.5q5 27 -8 89h-90z" />
    <glyph glyph-name="currency" unicode="&#xa4;" horiz-adv-x="668" 
d="M207 346q-16 -82 30.5 -140t126.5 -58q81 0 152 58.5t87 139.5q18 81 -29 139.5t-127 58.5q-81 0 -151.5 -58t-88.5 -140zM114 136l65 56q-40 65 -22 154q20 92 86 154l-42 56l46 38l44 -55q77 55 166 55q86 0 144 -55l66 55l30 -38l-66 -56q41 -65 22 -154
q-18 -90 -86 -154l43 -56l-46 -38l-44 55q-77 -55 -166 -55q-86 0 -144 55l-66 -55z" />
    <glyph glyph-name="yen" unicode="&#xa5;" horiz-adv-x="668" 
d="M337 194l20 96l-6 11h-198l10 50h160l-187 341h86l185 -340l325 340h86l-329 -341h160l-10 -50h-198l-10 -11l-20 -96h206l-11 -50h-206l-29 -144h-74l29 144h-206l11 50h206z" />
    <glyph glyph-name="brokenbar" unicode="&#xa6;" horiz-adv-x="222" 
d="M181 457l57 275h50l-57 -275h-50zM82 -18l57 275h50l-57 -275h-50z" />
    <glyph glyph-name="section" unicode="&#xa7;" horiz-adv-x="667" 
d="M187 341q-6 -27 1 -45.5t33 -35.5t55.5 -30.5t89.5 -42t114 -58.5q25 0 66 26.5t51 73.5q10 48 -27.5 77.5t-150.5 80.5q-72 33 -115 54q-26 -4 -67.5 -31.5t-49.5 -68.5zM100 17h74q-11 -68 31 -98.5t115 -30.5q59 0 105 23.5t55 68.5q10 41 -20.5 68t-103.5 63l-117 55
q-74 35 -104 68t-19 89q4 21 12.5 40t18.5 32.5t23 25t24.5 19t24.5 13.5t20.5 9t16.5 6l9 3q-52 39 -38 101q13 69 74 114.5t171 45.5q104 0 157.5 -44t34.5 -137h-74q6 15 1.5 35.5t-14 39t-40.5 31.5t-78 13q-66 0 -106 -22t-49 -64q-5 -21 2.5 -38.5t29.5 -33.5
t41.5 -26t55.5 -27l119 -55q70 -33 99 -67t16 -97q-6 -28 -20 -50.5t-28 -36t-35 -26t-33 -17t-32 -11.5q50 -41 37 -111q-13 -67 -78.5 -114.5t-170.5 -47.5q-68 0 -113 15t-66 43t-27 60t-1 73z" />
    <glyph glyph-name="dieresis" unicode="&#xa8;" 
d="M293 615l23 110h74l-23 -110h-74zM67 615l23 110h74l-23 -110h-74z" />
    <glyph glyph-name="copyright" unicode="&#xa9;" horiz-adv-x="800" 
d="M99 357q31 155 164 265t289 110q102 0 178 -50t108 -136.5t11 -188.5t-89.5 -188.5t-165.5 -136.5t-198 -50q-102 0 -178 50t-108 136.5t-11 188.5zM604 280h56q-32 -72 -93 -116.5t-131 -44.5q-102 0 -150.5 68t-26.5 170q21 104 95 170.5t178 66.5q76 0 120.5 -41.5
t40.5 -114.5h-56q0 47 -30 76.5t-85 29.5q-80 0 -135.5 -52.5t-71.5 -134.5q-16 -78 19.5 -133t112.5 -55q54 0 96.5 31t60.5 80zM149 357q-30 -138 44.5 -234.5t211.5 -96.5t250.5 96.5t143.5 235.5q28 137 -45.5 233.5t-210.5 96.5t-251.5 -96.5t-142.5 -234.5z" />
    <glyph glyph-name="ordfeminine" unicode="&#xaa;" horiz-adv-x="397" 
d="M491 432l-8 -38q-36 -4 -46 -4q-32 0 -40 14t-2 37h-2q-39 -63 -164 -63q-51 0 -86.5 23.5t-24.5 70.5q11 52 59 75t138 27q66 2 86.5 9t24.5 26q6 30 -14.5 42.5t-79.5 12.5q-106 0 -123 -62h-50q18 53 59.5 79.5t124.5 26.5q82 0 113 -23t21 -70l-31 -152
q-5 -20 -0.5 -27.5t19.5 -7.5t26 4zM406 513l8 39q-14 -8 -64 -15t-69 -7q-58 -3 -79 -16t-28 -39q-6 -32 16 -45.5t61 -13.5q53 0 99 25.5t56 71.5z" />
    <glyph glyph-name="guillemotleft" unicode="&#xab;" horiz-adv-x="500" 
d="M122 238l15 72l185 135l-16 -77l-133 -94l94 -94l-16 -77zM307 238l15 72l185 135l-16 -77l-133 -94l94 -94l-16 -77z" />
    <glyph glyph-name="logicalnot" unicode="&#xac;" horiz-adv-x="600" 
d="M525 108l45 217h-456l10 50h506l-55 -267h-50z" />
    <glyph glyph-name="uni00AD" unicode="&#xad;" horiz-adv-x="444" 
d="M168 237l30 74h304l-30 -74h-304z" />
    <glyph glyph-name="registered" unicode="&#xae;" horiz-adv-x="800" 
d="M421 536l-33 -160h111q50 0 80.5 17.5t41.5 63.5q9 43 -16.5 61t-72.5 18h-111zM563 134l-89 198h-95l-42 -198h-50l93 446h171q145 0 119 -124q-21 -103 -137 -124l92 -198h-62zM149 357q-30 -138 44.5 -234.5t211.5 -96.5t250.5 96.5t143.5 235.5q28 137 -45.5 233.5
t-210.5 96.5t-251.5 -96.5t-142.5 -234.5zM99 357q31 155 164 265t289 110q102 0 178 -50t108 -136.5t11 -188.5t-89.5 -188.5t-165.5 -136.5t-198 -50q-102 0 -178 50t-108 136.5t-11 188.5z" />
    <glyph glyph-name="macron" unicode="&#xaf;" 
d="M168 642l13 56h386l-12 -56h-387z" />
    <glyph glyph-name="degree" unicode="&#xb0;" horiz-adv-x="400" 
d="M218 565q-8 -42 14 -70.5t64 -28.5t77 28.5t43 70.5t-14 70.5t-64 28.5t-77 -28.5t-43 -70.5zM174 565q12 60 62.5 101.5t110.5 41.5q59 0 92 -41.5t21 -101.5t-62.5 -101.5t-110.5 -41.5q-59 0 -92 41.5t-21 101.5z" />
    <glyph glyph-name="plusminus" unicode="&#xb1;" horiz-adv-x="600" 
d="M47 0l10 50h506l-10 -50h-506zM342 324l38 182h50l-38 -182h228l-11 -50h-228l-37 -182h-50l37 182h-228l11 50h228z" />
    <glyph glyph-name="twosuperior" unicode="&#xb2;" horiz-adv-x="434" 
d="M455 336l-10 -50h-352q10 30 23 51t54 52.5t109 61.5q92 42 125 65.5t41 63.5q8 42 -14 63t-75 21q-64 0 -97.5 -31t-43.5 -76h-56q32 151 206 151q85 0 116.5 -38t19.5 -90q-11 -49 -45 -80.5t-88 -54.5q-109 -47 -147.5 -68t-49.5 -41h284z" />
    <glyph glyph-name="threesuperior" unicode="&#xb3;" horiz-adv-x="434" 
d="M286 484l9 44q8 -2 14 -2h18q106 0 120 67q7 34 -17.5 52.5t-68.5 18.5q-61 0 -96 -26t-44 -70h-56q13 61 66 100.5t139 39.5q65 0 104.5 -28t28.5 -87q-6 -31 -34 -55.5t-68 -29.5v-2q43 -2 66 -30t14 -74q-15 -67 -69.5 -97.5t-126.5 -30.5q-96 0 -137.5 35t-24.5 110
h56q-7 -31 1 -52.5t28 -31.5t41 -13.5t49 -3.5q55 0 87.5 25t39.5 57q5 22 -1.5 37.5t-17.5 24t-34 13.5t-40 6.5t-46 2.5z" />
    <glyph glyph-name="acute" unicode="&#xb4;" 
d="M152 599l144 142h91l-174 -142h-61z" />
    <glyph glyph-name="mu" unicode="&#xb5;" horiz-adv-x="630" 
d="M499 0l20 102h-2q-26 -46 -93 -82t-147 -36q-102 0 -140 50l-49 -236h-73l149 722h74l-70 -335q-15 -73 22.5 -106t105.5 -33q106 0 169 50t82 142l59 282h74l-107 -520h-74z" />
    <glyph glyph-name="paragraph" unicode="&#xb6;" horiz-adv-x="600" 
d="M216 -156l101 484q-86 0 -135 56t-33 134q20 95 89 145.5t175 50.5h217l-181 -870h-56l172 826h-121l-172 -826h-56z" />
    <glyph glyph-name="periodcentered" unicode="&#xb7;" horiz-adv-x="278" 
d="M201 312q12 27 39.5 46.5t54.5 19.5t38.5 -19.5t-0.5 -46.5q-11 -27 -38 -46.5t-54 -19.5t-39 19.5t-1 46.5z" />
    <glyph glyph-name="cedilla" unicode="&#xb8;" 
d="M7 -84l74 84h41l-54 -60l2 -2q17 5 41 5q39 0 58.5 -18.5t13.5 -50.5q-7 -32 -46.5 -54t-95.5 -22q-54 0 -95 17l20 35q45 -14 79 -14q67 0 76 38q3 18 -11 27t-34 9q-35 0 -55 -11z" />
    <glyph glyph-name="onesuperior" unicode="&#xb9;" horiz-adv-x="289" 
d="M205 286l64 306h-133l7 38h32q55 0 82 14.5t48 63.5h44l-88 -422h-56z" />
    <glyph glyph-name="ordmasculine" unicode="&#xba;" horiz-adv-x="434" 
d="M138 544q13 68 73 116t153 48t132 -47.5t26 -116.5q-15 -71 -74.5 -118.5t-152.5 -47.5t-132.5 47.5t-24.5 118.5zM194 544q-12 -57 17.5 -89.5t92.5 -32.5t106.5 32.5t55.5 89.5q11 55 -18.5 87.5t-92.5 32.5t-106.5 -32.5t-54.5 -87.5z" />
    <glyph glyph-name="guillemotright" unicode="&#xbb;" horiz-adv-x="500" 
d="M439 274l-93 94l16 77l129 -135l-15 -72l-185 -135l16 77zM254 274l-93 94l16 77l129 -135l-15 -72l-185 -135l16 77z" />
    <glyph glyph-name="onequarter" unicode="&#xbc;" horiz-adv-x="1000" 
d="M205 286l64 306h-133l7 38h32q55 0 82 14.5t48 63.5h44l-88 -422h-56zM172 -16l576 724h62l-576 -724h-62zM816 0l20 99h-238l9 44l302 279h50l-58 -279h80l-9 -44h-80l-20 -99h-56zM845 143l43 205h-2l-223 -205h182z" />
    <glyph glyph-name="onehalf" unicode="&#xbd;" horiz-adv-x="1000" 
d="M962 50l-10 -50h-352q10 30 22.5 51t54 52.5t109.5 61.5q91 41 124 65t42 64q8 42 -14 63t-76 21q-116 0 -140 -104h-56q33 148 205 148q85 0 116 -37.5t21 -90.5q-11 -49 -45 -80.5t-88 -54.5q-111 -47 -148.5 -68t-48.5 -41h284zM205 286l64 306h-133l7 38h32
q55 0 82 14.5t48 63.5h44l-88 -422h-56zM172 -16l576 724h62l-576 -724h-62z" />
    <glyph glyph-name="threequarters" unicode="&#xbe;" horiz-adv-x="1000" 
d="M286 484l9 44q8 -2 14 -2h18q106 0 120 67q7 34 -17.5 52.5t-68.5 18.5q-61 0 -96 -26t-44 -70h-56q13 61 66 100.5t139 39.5q65 0 104.5 -28t28.5 -87q-6 -31 -34 -55.5t-68 -29.5v-2q43 -2 66 -30t14 -74q-15 -67 -69.5 -97.5t-126.5 -30.5q-96 0 -137.5 35t-24.5 110
h56q-7 -31 1 -52.5t28 -31.5t41 -13.5t49 -3.5q55 0 87.5 25t39.5 57q5 22 -1.5 37.5t-17.5 24t-34 13.5t-40 6.5t-46 2.5zM274 -16l576 724h62l-576 -724h-62zM816 0l20 99h-238l9 44l302 279h50l-58 -279h80l-9 -44h-80l-20 -99h-56zM845 143l43 205h-2l-223 -205h182z
" />
    <glyph glyph-name="questiondown" unicode="&#xbf;" horiz-adv-x="648" 
d="M497 536l-23 -110h-86l23 110h86zM529 45h74q-21 -105 -102 -173t-207 -68q-109 0 -172.5 52.5t-43.5 153.5q13 64 51.5 102.5t132.5 96.5q72 45 90.5 67.5t28.5 74.5h68q-16 -77 -39 -103.5t-134 -98.5q-29 -19 -43 -28.5t-34.5 -27.5t-31 -38t-15.5 -45
q-14 -62 31 -100t125 -38q179 0 221 173z" />
    <glyph glyph-name="Agrave" unicode="&#xc0;" horiz-adv-x="722" 
d="M642 0l-50 217h-376l-142 -217h-80l472 714h86l176 -714h-86zM576 285l-83 355l-233 -355h316zM460 911l86 -142h-61l-116 142h91z" />
    <glyph glyph-name="Aacute" unicode="&#xc1;" horiz-adv-x="722" 
d="M642 0l-50 217h-376l-142 -217h-80l472 714h86l176 -714h-86zM576 285l-83 355l-233 -355h316zM469 769l144 142h91l-174 -142h-61z" />
    <glyph glyph-name="Acircumflex" unicode="&#xc2;" horiz-adv-x="722" 
d="M642 0l-50 217h-376l-142 -217h-80l472 714h86l176 -714h-86zM576 285l-83 355l-233 -355h316zM333 769l172 142h80l114 -142h-75l-87 101l-129 -101h-75z" />
    <glyph glyph-name="Atilde" unicode="&#xc3;" horiz-adv-x="722" 
d="M642 0l-50 217h-376l-142 -217h-80l472 714h86l176 -714h-86zM576 285l-83 355l-233 -355h316zM680 894h44q-19 -45 -42 -70q-34 -38 -84 -38q-38 0 -84 26q-50 26 -74 26q-20 0 -34.5 -9.5t-19.5 -18.5t-11 -24h-44q46 108 126 108q38 0 84 -26q50 -26 74 -26
q20 0 34.5 9.5t19.5 18.5t11 24z" />
    <glyph glyph-name="Adieresis" unicode="&#xc4;" horiz-adv-x="722" 
d="M642 0l-50 217h-376l-142 -217h-80l472 714h86l176 -714h-86zM576 285l-83 355l-233 -355h316zM595 785l23 110h74l-23 -110h-74zM369 785l23 110h74l-23 -110h-74z" />
    <glyph glyph-name="Aring" unicode="&#xc5;" horiz-adv-x="722" 
d="M642 0l-50 217h-376l-142 -217h-80l472 714h86l176 -714h-86zM576 285l-83 355l-233 -355h316zM462 864q-7 -30 10 -51t47 -21t55 21t32 51q6 30 -10.5 51t-46.5 21t-55.5 -21t-31.5 -51zM424 864q8 44 48 77t84 33q46 0 71 -32t17 -78q-10 -46 -49 -78t-84 -32t-71 32
t-16 78z" />
    <glyph glyph-name="AE" unicode="&#xc6;" horiz-adv-x="1093" 
d="M-23 0l606 714h622l-14 -68h-455l-51 -242h433l-14 -68h-433l-55 -268h460l-14 -68h-534l48 232h-317l-196 -232h-86zM590 300l72 346h-53l-294 -346h275z" />
    <glyph glyph-name="Ccedilla" unicode="&#xc7;" horiz-adv-x="815" 
d="M756 272h74q-37 -124 -150.5 -207t-262.5 -83h-1l-38 -42l2 -2q17 5 41 5q39 0 58.5 -18.5t13.5 -50.5q-7 -32 -46.5 -54t-95.5 -22q-54 0 -95 17l20 35q46 -14 79 -14q67 0 76 38q3 18 -11 27t-34 9q-35 0 -55 -11l-14 17l59 68q-62 4 -111 24q-97 40 -137 130.5
t-13 218.5q14 66 48 128.5t88.5 119.5t138 92t183.5 35q61 0 114 -14.5t96.5 -44t66 -81t16.5 -119.5h-74q4 96 -62 143.5t-171 47.5q-138 0 -235.5 -78t-128.5 -229q-15 -60 -7.5 -115t31.5 -98t78.5 -68.5t133.5 -25.5q238 0 325 222z" />
    <glyph glyph-name="Egrave" unicode="&#xc8;" horiz-adv-x="685" 
d="M78 0l148 714h568l-14 -68h-494l-51 -242h476l-14 -68h-476l-55 -268h502l-14 -68h-576zM488 911l86 -142h-61l-116 142h91z" />
    <glyph glyph-name="Eacute" unicode="&#xc9;" horiz-adv-x="685" 
d="M78 0l148 714h568l-14 -68h-494l-51 -242h476l-14 -68h-476l-55 -268h502l-14 -68h-576zM480 769l144 142h91l-174 -142h-61z" />
    <glyph glyph-name="Ecircumflex" unicode="&#xca;" horiz-adv-x="685" 
d="M78 0l148 714h568l-14 -68h-494l-51 -242h476l-14 -68h-476l-55 -268h502l-14 -68h-576zM331 769l172 142h80l114 -142h-75l-87 101l-129 -101h-75z" />
    <glyph glyph-name="Edieresis" unicode="&#xcb;" horiz-adv-x="685" 
d="M78 0l148 714h568l-14 -68h-494l-51 -242h476l-14 -68h-476l-55 -268h502l-14 -68h-576zM596 785l23 110h74l-23 -110h-74zM370 785l23 110h74l-23 -110h-74z" />
    <glyph glyph-name="Igrave" unicode="&#xcc;" horiz-adv-x="222" 
d="M74 0l148 714h74l-148 -714h-74zM211 911l86 -142h-61l-116 142h91z" />
    <glyph glyph-name="Iacute" unicode="&#xcd;" horiz-adv-x="222" 
d="M74 0l148 714h74l-148 -714h-74zM224 769l144 142h91l-174 -142h-61z" />
    <glyph glyph-name="Icircumflex" unicode="&#xce;" horiz-adv-x="222" 
d="M74 0l148 714h74l-148 -714h-74zM80 769l172 142h80l114 -142h-75l-87 101l-129 -101h-75z" />
    <glyph glyph-name="Idieresis" unicode="&#xcf;" horiz-adv-x="222" 
d="M74 0l148 714h74l-148 -714h-74zM346 785l23 110h74l-23 -110h-74zM120 785l23 110h74l-23 -110h-74z" />
    <glyph glyph-name="Eth" unicode="&#xd0;" horiz-adv-x="778" 
d="M274 646l-51 -243h258l-11 -56h-258l-58 -279h270q50 0 94.5 15t85.5 47t72 90t47 137q60 289 -179 289h-270zM66 0l72 347h-66l11 56h66l65 311h347q154 0 215 -93.5t27 -263.5q-34 -157 -134 -257t-245 -100h-358z" />
    <glyph glyph-name="Ntilde" unicode="&#xd1;" horiz-adv-x="796" 
d="M66 0l148 714h89l372 -610h2l127 610h74l-148 -714h-86l-376 610h-2l-126 -610h-74zM724 894h44q-19 -45 -42 -70q-34 -38 -84 -38q-38 0 -84 26q-50 26 -74 26q-20 0 -34.5 -9.5t-19.5 -18.5t-11 -24h-44q46 108 126 108q38 0 84 -26q50 -26 74 -26q20 0 34.5 9.5
t19.5 18.5t11 24z" />
    <glyph glyph-name="Ograve" unicode="&#xd2;" horiz-adv-x="852" 
d="M192 357q-15 -81 -3 -139t49 -95.5t87 -55t111 -17.5q129 0 234.5 77.5t137.5 229.5q30 152 -42.5 229.5t-201.5 77.5q-82 0 -156 -30.5t-135 -102t-81 -174.5zM112 357q24 121 98 208t169 127t199 40q163 0 254.5 -97.5t55.5 -277.5q-25 -121 -99 -208t-168 -127
t-199 -40q-78 0 -141.5 23t-109.5 70t-61.5 117t2.5 165zM548 911l86 -142h-61l-116 142h91z" />
    <glyph glyph-name="Oacute" unicode="&#xd3;" horiz-adv-x="852" 
d="M192 357q-15 -81 -3 -139t49 -95.5t87 -55t111 -17.5q129 0 234.5 77.5t137.5 229.5q30 152 -42.5 229.5t-201.5 77.5q-82 0 -156 -30.5t-135 -102t-81 -174.5zM112 357q24 121 98 208t169 127t199 40q163 0 254.5 -97.5t55.5 -277.5q-25 -121 -99 -208t-168 -127
t-199 -40q-78 0 -141.5 23t-109.5 70t-61.5 117t2.5 165zM531 769l144 142h91l-174 -142h-61z" />
    <glyph glyph-name="Ocircumflex" unicode="&#xd4;" horiz-adv-x="852" 
d="M192 357q-15 -81 -3 -139t49 -95.5t87 -55t111 -17.5q129 0 234.5 77.5t137.5 229.5q30 152 -42.5 229.5t-201.5 77.5q-82 0 -156 -30.5t-135 -102t-81 -174.5zM112 357q24 121 98 208t169 127t199 40q163 0 254.5 -97.5t55.5 -277.5q-25 -121 -99 -208t-168 -127
t-199 -40q-78 0 -141.5 23t-109.5 70t-61.5 117t2.5 165zM392 769l172 142h80l114 -142h-75l-87 101l-129 -101h-75z" />
    <glyph glyph-name="Otilde" unicode="&#xd5;" horiz-adv-x="852" 
d="M192 357q-15 -81 -3 -139t49 -95.5t87 -55t111 -17.5q129 0 234.5 77.5t137.5 229.5q30 152 -42.5 229.5t-201.5 77.5q-82 0 -156 -30.5t-135 -102t-81 -174.5zM112 357q24 121 98 208t169 127t199 40q163 0 254.5 -97.5t55.5 -277.5q-25 -121 -99 -208t-168 -127
t-199 -40q-78 0 -141.5 23t-109.5 70t-61.5 117t2.5 165zM746 894h44q-19 -45 -42 -70q-34 -38 -84 -38q-38 0 -84 26q-50 26 -74 26q-20 0 -34.5 -9.5t-19.5 -18.5t-11 -24h-44q46 108 126 108q38 0 84 -26q50 -26 74 -26q20 0 34.5 9.5t19.5 18.5t11 24z" />
    <glyph glyph-name="Odieresis" unicode="&#xd6;" horiz-adv-x="852" 
d="M192 357q-15 -81 -3 -139t49 -95.5t87 -55t111 -17.5q129 0 234.5 77.5t137.5 229.5q30 152 -42.5 229.5t-201.5 77.5q-82 0 -156 -30.5t-135 -102t-81 -174.5zM112 357q24 121 98 208t169 127t199 40q163 0 254.5 -97.5t55.5 -277.5q-25 -121 -99 -208t-168 -127
t-199 -40q-78 0 -141.5 23t-109.5 70t-61.5 117t2.5 165zM663 785l23 110h74l-23 -110h-74zM437 785l23 110h74l-23 -110h-74z" />
    <glyph glyph-name="multiply" unicode="&#xd7;" horiz-adv-x="600" 
d="M358 288l231 191l29 -36l-231 -190l152 -190l-44 -36l-151 191l-229 -191l-28 36l229 190l-150 190l43 36z" />
    <glyph glyph-name="Oslash" unicode="&#xd8;" horiz-adv-x="852" 
d="M40 12l110 89q-70 104 -38 256q24 121 98 208t169 127t199 40q159 0 247 -89l112 89l22 -30l-110 -88q72 -99 39 -257q-25 -121 -99 -208t-168 -127t-199 -40q-158 0 -248 90l-111 -90zM783 561l-545 -438q67 -73 198 -73q129 0 234.5 77.5t137.5 229.5q27 124 -25 204z
M215 153l545 438q-67 73 -196 73q-82 0 -156 -30.5t-135 -102t-81 -174.5q-27 -125 23 -204z" />
    <glyph glyph-name="Ugrave" unicode="&#xd9;" horiz-adv-x="778" 
d="M856 714l-91 -438q-9 -45 -22.5 -81.5t-41.5 -78t-67.5 -69.5t-103.5 -46.5t-145 -18.5t-137.5 18.5t-84 47t-39 69.5t-9.5 77.5t12 81.5l91 438h74l-91 -438q-14 -56 -6.5 -95.5t23.5 -65t47 -40t62.5 -20t71.5 -5.5q244 0 292 226l91 438h74zM492 911l86 -142h-61
l-116 142h91z" />
    <glyph glyph-name="Uacute" unicode="&#xda;" horiz-adv-x="778" 
d="M856 714l-91 -438q-9 -45 -22.5 -81.5t-41.5 -78t-67.5 -69.5t-103.5 -46.5t-145 -18.5t-137.5 18.5t-84 47t-39 69.5t-9.5 77.5t12 81.5l91 438h74l-91 -438q-14 -56 -6.5 -95.5t23.5 -65t47 -40t62.5 -20t71.5 -5.5q244 0 292 226l91 438h74zM504 769l144 142h91
l-174 -142h-61z" />
    <glyph glyph-name="Ucircumflex" unicode="&#xdb;" horiz-adv-x="778" 
d="M856 714l-91 -438q-9 -45 -22.5 -81.5t-41.5 -78t-67.5 -69.5t-103.5 -46.5t-145 -18.5t-137.5 18.5t-84 47t-39 69.5t-9.5 77.5t12 81.5l91 438h74l-91 -438q-14 -56 -6.5 -95.5t23.5 -65t47 -40t62.5 -20t71.5 -5.5q244 0 292 226l91 438h74zM363 769l172 142h80
l114 -142h-75l-87 101l-129 -101h-75z" />
    <glyph glyph-name="Udieresis" unicode="&#xdc;" horiz-adv-x="778" 
d="M856 714l-91 -438q-9 -45 -22.5 -81.5t-41.5 -78t-67.5 -69.5t-103.5 -46.5t-145 -18.5t-137.5 18.5t-84 47t-39 69.5t-9.5 77.5t12 81.5l91 438h74l-91 -438q-14 -56 -6.5 -95.5t23.5 -65t47 -40t62.5 -20t71.5 -5.5q244 0 292 226l91 438h74zM624 785l23 110h74
l-23 -110h-74zM398 785l23 110h74l-23 -110h-74z" />
    <glyph glyph-name="Yacute" unicode="&#xdd;" horiz-adv-x="686" 
d="M306 0l62 300l-235 414h96l191 -340l333 340h96l-407 -414l-62 -300h-74zM460 769l144 142h91l-174 -142h-61z" />
    <glyph glyph-name="Thorn" unicode="&#xde;" horiz-adv-x="704" 
d="M78 0l148 714h74l-27 -130h311q91 0 142.5 -50.5t29.5 -155.5q-21 -102 -96 -155t-195 -53h-278l-35 -170h-74zM259 516l-58 -278h286q88 0 132 36.5t57 103.5q15 76 -16 107t-100 31h-301z" />
    <glyph glyph-name="germandbls" unicode="&#xdf;" horiz-adv-x="630" 
d="M340 359l14 65q27 -3 40 -3q165 0 192 118q13 61 -29 90t-114 29q-99 0 -145.5 -40t-62.5 -115l-104 -503h-74l105 506q42 214 294 214q56 0 97.5 -11.5t63 -30t34.5 -42.5t12.5 -48.5t-3.5 -47.5q-12 -58 -52.5 -93.5t-97.5 -47.5v-2q11 -2 22 -5t29.5 -12t31 -22.5
t25.5 -35.5t13 -52t-6 -72q-21 -97 -99.5 -155.5t-195.5 -58.5q-23 0 -74 8l13 61q37 -7 62 -7q92 0 149.5 45t72.5 117q17 81 -28.5 116t-147.5 35h-37z" />
    <glyph glyph-name="agrave" unicode="&#xe0;" horiz-adv-x="611" 
d="M195 360h-68q28 88 93 132t192 44t175 -38.5t31 -115.5l-57 -272q-7 -32 0 -45t29 -13q14 0 40 2l-11 -50q-40 -8 -63 -8q-34 0 -50.5 14.5t-15 35t4.5 42.5h-2q-89 -104 -265 -104q-80 0 -132.5 38t-36.5 118q8 40 31 70t50.5 46.5t67 27t71 14t72.5 5.5q121 6 155 18
t42 51q11 56 -23.5 79t-127.5 23q-89 0 -137 -26t-65 -88zM512 201l17 79q-26 -15 -70.5 -21.5t-168.5 -17.5q-69 -6 -108 -28.5t-48 -67.5q-11 -57 25 -81t103 -24q83 0 159 43t91 118zM404 741l86 -142h-61l-116 142h91z" />
    <glyph glyph-name="aacute" unicode="&#xe1;" horiz-adv-x="611" 
d="M195 360h-68q28 88 93 132t192 44t175 -38.5t31 -115.5l-57 -272q-7 -32 0 -45t29 -13q14 0 40 2l-11 -50q-40 -8 -63 -8q-34 0 -50.5 14.5t-15 35t4.5 42.5h-2q-89 -104 -265 -104q-80 0 -132.5 38t-36.5 118q8 40 31 70t50.5 46.5t67 27t71 14t72.5 5.5q121 6 155 18
t42 51q11 56 -23.5 79t-127.5 23q-89 0 -137 -26t-65 -88zM512 201l17 79q-26 -15 -70.5 -21.5t-168.5 -17.5q-69 -6 -108 -28.5t-48 -67.5q-11 -57 25 -81t103 -24q83 0 159 43t91 118zM388 599l144 142h91l-174 -142h-61z" />
    <glyph glyph-name="acircumflex" unicode="&#xe2;" horiz-adv-x="611" 
d="M195 360h-68q28 88 93 132t192 44t175 -38.5t31 -115.5l-57 -272q-7 -32 0 -45t29 -13q14 0 40 2l-11 -50q-40 -8 -63 -8q-34 0 -50.5 14.5t-15 35t4.5 42.5h-2q-89 -104 -265 -104q-80 0 -132.5 38t-36.5 118q8 40 31 70t50.5 46.5t67 27t71 14t72.5 5.5q121 6 155 18
t42 51q11 56 -23.5 79t-127.5 23q-89 0 -137 -26t-65 -88zM512 201l17 79q-26 -15 -70.5 -21.5t-168.5 -17.5q-69 -6 -108 -28.5t-48 -67.5q-11 -57 25 -81t103 -24q83 0 159 43t91 118zM253 599l172 142h80l114 -142h-75l-87 101l-129 -101h-75z" />
    <glyph glyph-name="atilde" unicode="&#xe3;" horiz-adv-x="611" 
d="M195 360h-68q28 88 93 132t192 44t175 -38.5t31 -115.5l-57 -272q-7 -32 0 -45t29 -13q14 0 40 2l-11 -50q-40 -8 -63 -8q-34 0 -50.5 14.5t-15 35t4.5 42.5h-2q-89 -104 -265 -104q-80 0 -132.5 38t-36.5 118q8 40 31 70t50.5 46.5t67 27t71 14t72.5 5.5q121 6 155 18
t42 51q11 56 -23.5 79t-127.5 23q-89 0 -137 -26t-65 -88zM512 201l17 79q-26 -15 -70.5 -21.5t-168.5 -17.5q-69 -6 -108 -28.5t-48 -67.5q-11 -57 25 -81t103 -24q83 0 159 43t91 118zM590 724h44q-19 -45 -42 -70q-34 -38 -84 -38q-38 0 -84 26q-50 26 -74 26
q-20 0 -34.5 -9.5t-19.5 -18.5t-11 -24h-44q46 108 126 108q38 0 84 -26q50 -26 74 -26q20 0 34.5 9.5t19.5 18.5t11 24z" />
    <glyph glyph-name="adieresis" unicode="&#xe4;" horiz-adv-x="611" 
d="M195 360h-68q28 88 93 132t192 44t175 -38.5t31 -115.5l-57 -272q-7 -32 0 -45t29 -13q14 0 40 2l-11 -50q-40 -8 -63 -8q-34 0 -50.5 14.5t-15 35t4.5 42.5h-2q-89 -104 -265 -104q-80 0 -132.5 38t-36.5 118q8 40 31 70t50.5 46.5t67 27t71 14t72.5 5.5q121 6 155 18
t42 51q11 56 -23.5 79t-127.5 23q-89 0 -137 -26t-65 -88zM512 201l17 79q-26 -15 -70.5 -21.5t-168.5 -17.5q-69 -6 -108 -28.5t-48 -67.5q-11 -57 25 -81t103 -24q83 0 159 43t91 118zM500 615l23 110h74l-23 -110h-74zM274 615l23 110h74l-23 -110h-74z" />
    <glyph glyph-name="aring" unicode="&#xe5;" horiz-adv-x="611" 
d="M195 360h-68q28 88 93 132t192 44t175 -38.5t31 -115.5l-57 -272q-7 -32 0 -45t29 -13q14 0 40 2l-11 -50q-40 -8 -63 -8q-34 0 -50.5 14.5t-15 35t4.5 42.5h-2q-89 -104 -265 -104q-80 0 -132.5 38t-36.5 118q8 40 31 70t50.5 46.5t67 27t71 14t72.5 5.5q121 6 155 18
t42 51q11 56 -23.5 79t-127.5 23q-89 0 -137 -26t-65 -88zM512 201l17 79q-26 -15 -70.5 -21.5t-168.5 -17.5q-69 -6 -108 -28.5t-48 -67.5q-11 -57 25 -81t103 -24q83 0 159 43t91 118zM371 700q-7 -30 10 -51t47 -21t55 21t32 51q6 30 -10.5 51t-46.5 21t-55.5 -21
t-31.5 -51zM333 700q8 44 48 77t84 33q46 0 71 -32t17 -78q-10 -46 -49 -78t-84 -32t-71 32t-16 78z" />
    <glyph glyph-name="ae" unicode="&#xe6;" horiz-adv-x="1074" 
d="M518 201l17 79q-26 -15 -70.5 -21.5t-168.5 -17.5q-69 -6 -108 -28.5t-48 -67.5q-11 -57 25 -81t103 -24q83 0 159 43t91 118zM606 298h419q4 90 -46 133t-131 43q-92 0 -154.5 -47t-87.5 -129zM1088 242h-493q-18 -88 25.5 -142t138.5 -54q87 0 140 29.5t85 90.5h74
q-41 -79 -118.5 -130.5t-193.5 -51.5q-97 0 -152 41.5t-62 98.5q-35 -56 -107 -98t-191 -42q-80 0 -132.5 38t-36.5 118q8 40 31 70t50.5 46.5t67 27t71 14t72.5 5.5q121 6 155 18t42 51q11 56 -23.5 79t-127.5 23q-89 0 -137 -26t-65 -88h-68q28 88 93 132t192 44
q108 0 151 -26t53 -84q93 110 234 110q36 0 67.5 -5.5t63 -18.5t53.5 -35t39 -54.5t18 -77t-9 -103.5z" />
    <glyph glyph-name="ccedilla" unicode="&#xe7;" horiz-adv-x="611" 
d="M550 186h74q-10 -24 -24.5 -47.5t-41 -52.5t-58.5 -50.5t-79 -36.5t-101 -15l-39 -44l2 -2q17 5 41 5q39 0 58.5 -18.5t13.5 -50.5q-7 -32 -46.5 -54t-95.5 -22q-54 0 -95 17l20 35q45 -14 79 -14q67 0 76 38q3 18 -11 27t-34 9q-35 0 -55 -11l-14 17l61 70q-47 5 -83 18
q-74 30 -104 97t-10 159q25 123 116 199.5t234 76.5q64 0 110 -18t69 -47.5t32.5 -59.5t8.5 -61h-74q-6 124 -159 124q-107 0 -175.5 -60t-87.5 -154q-21 -98 24.5 -156t149.5 -58q78 0 134 38t84 102z" />
    <glyph glyph-name="egrave" unicode="&#xe8;" horiz-adv-x="648" 
d="M562 166h74q-41 -78 -120.5 -130t-197.5 -52q-62 0 -108 16.5t-71 44t-39.5 63.5t-13.5 74.5t7 77.5q24 117 113 196.5t227 79.5q36 0 67.5 -5.5t63 -18.5t53.5 -35t39 -54.5t18 -77t-9 -103.5h-502q-19 -84 26.5 -140t141.5 -56q90 0 144 29t87 91zM174 298h428
q4 90 -46 133t-131 43q-80 0 -150.5 -43.5t-100.5 -132.5zM402 741l86 -142h-61l-116 142h91z" />
    <glyph glyph-name="eacute" unicode="&#xe9;" horiz-adv-x="648" 
d="M562 166h74q-41 -78 -120.5 -130t-197.5 -52q-62 0 -108 16.5t-71 44t-39.5 63.5t-13.5 74.5t7 77.5q24 117 113 196.5t227 79.5q36 0 67.5 -5.5t63 -18.5t53.5 -35t39 -54.5t18 -77t-9 -103.5h-502q-19 -84 26.5 -140t141.5 -56q90 0 144 29t87 91zM174 298h428
q4 90 -46 133t-131 43q-80 0 -150.5 -43.5t-100.5 -132.5zM407 599l144 142h91l-174 -142h-61z" />
    <glyph glyph-name="ecircumflex" unicode="&#xea;" horiz-adv-x="648" 
d="M562 166h74q-41 -78 -120.5 -130t-197.5 -52q-62 0 -108 16.5t-71 44t-39.5 63.5t-13.5 74.5t7 77.5q24 117 113 196.5t227 79.5q36 0 67.5 -5.5t63 -18.5t53.5 -35t39 -54.5t18 -77t-9 -103.5h-502q-19 -84 26.5 -140t141.5 -56q90 0 144 29t87 91zM174 298h428
q4 90 -46 133t-131 43q-80 0 -150.5 -43.5t-100.5 -132.5zM272 599l172 142h80l114 -142h-75l-87 101l-129 -101h-75z" />
    <glyph glyph-name="edieresis" unicode="&#xeb;" horiz-adv-x="648" 
d="M562 166h74q-41 -78 -120.5 -130t-197.5 -52q-62 0 -108 16.5t-71 44t-39.5 63.5t-13.5 74.5t7 77.5q24 117 113 196.5t227 79.5q36 0 67.5 -5.5t63 -18.5t53.5 -35t39 -54.5t18 -77t-9 -103.5h-502q-19 -84 26.5 -140t141.5 -56q90 0 144 29t87 91zM174 298h428
q4 90 -46 133t-131 43q-80 0 -150.5 -43.5t-100.5 -132.5zM522 615l23 110h74l-23 -110h-74zM296 615l23 110h74l-23 -110h-74z" />
    <glyph glyph-name="igrave" unicode="&#xec;" 
d="M55 0l108 520h74l-108 -520h-74zM153 741l86 -142h-61l-116 142h91z" />
    <glyph glyph-name="iacute" unicode="&#xed;" 
d="M55 0l108 520h74l-108 -520h-74zM170 599l144 142h91l-174 -142h-61z" />
    <glyph glyph-name="icircumflex" unicode="&#xee;" 
d="M55 0l108 520h74l-108 -520h-74zM30 599l172 142h80l114 -142h-75l-87 101l-129 -101h-75z" />
    <glyph glyph-name="idieresis" unicode="&#xef;" 
d="M55 0l108 520h74l-108 -520h-74zM291 615l23 110h74l-23 -110h-74zM65 615l23 110h74l-23 -110h-74z" />
    <glyph glyph-name="eth" unicode="&#xf0;" horiz-adv-x="668" 
d="M93 260q24 117 117 196.5t235 79.5q118 0 166 -87h3q-47 138 -153 196l-135 -57l-27 26l124 52q-42 26 -107 48l59 40q68 -21 123 -57l132 55l24 -27l-124 -52q100 -65 138.5 -183.5t15.5 -220.5q-5 -31 -18.5 -64.5t-42 -74t-66 -72t-97 -53t-130.5 -21.5
q-143 0 -203 80t-34 196zM609 260q20 95 -27.5 154.5t-149.5 59.5q-103 0 -174 -59.5t-91 -154.5t26.5 -154.5t149.5 -59.5q102 0 174 59.5t92 154.5z" />
    <glyph glyph-name="ntilde" unicode="&#xf1;" horiz-adv-x="630" 
d="M499 0l69 335q15 74 -19 106.5t-109 32.5q-106 0 -169 -50t-82 -142l-58 -282h-74l108 520h74l-22 -102h2q29 47 94.5 82.5t145.5 35.5q227 0 180 -214l-66 -322h-74zM596 724h44q-19 -45 -42 -70q-34 -38 -84 -38q-38 0 -84 26q-50 26 -74 26q-20 0 -34.5 -9.5
t-19.5 -18.5t-11 -24h-44q46 108 126 108q38 0 84 -26q50 -26 74 -26q20 0 34.5 9.5t19.5 18.5t11 24z" />
    <glyph glyph-name="ograve" unicode="&#xf2;" horiz-adv-x="668" 
d="M93 260q24 117 117 196.5t235 79.5q143 0 202.5 -79.5t35.5 -196.5q-26 -117 -118.5 -196.5t-234.5 -79.5q-143 0 -203 80t-34 196zM167 260q-20 -95 26.5 -154.5t149.5 -59.5q102 0 174 59.5t92 154.5t-27.5 154.5t-149.5 59.5q-103 0 -174 -59.5t-91 -154.5zM413 741
l86 -142h-61l-116 142h91z" />
    <glyph glyph-name="oacute" unicode="&#xf3;" horiz-adv-x="668" 
d="M93 260q24 117 117 196.5t235 79.5q143 0 202.5 -79.5t35.5 -196.5q-26 -117 -118.5 -196.5t-234.5 -79.5q-143 0 -203 80t-34 196zM167 260q-20 -95 26.5 -154.5t149.5 -59.5q102 0 174 59.5t92 154.5t-27.5 154.5t-149.5 59.5q-103 0 -174 -59.5t-91 -154.5zM415 599
l144 142h91l-174 -142h-61z" />
    <glyph glyph-name="ocircumflex" unicode="&#xf4;" horiz-adv-x="668" 
d="M93 260q24 117 117 196.5t235 79.5q143 0 202.5 -79.5t35.5 -196.5q-26 -117 -118.5 -196.5t-234.5 -79.5q-143 0 -203 80t-34 196zM167 260q-20 -95 26.5 -154.5t149.5 -59.5q102 0 174 59.5t92 154.5t-27.5 154.5t-149.5 59.5q-103 0 -174 -59.5t-91 -154.5zM275 599
l172 142h80l114 -142h-75l-87 101l-129 -101h-75z" />
    <glyph glyph-name="otilde" unicode="&#xf5;" horiz-adv-x="668" 
d="M93 260q24 117 117 196.5t235 79.5q143 0 202.5 -79.5t35.5 -196.5q-26 -117 -118.5 -196.5t-234.5 -79.5q-143 0 -203 80t-34 196zM167 260q-20 -95 26.5 -154.5t149.5 -59.5q102 0 174 59.5t92 154.5t-27.5 154.5t-149.5 59.5q-103 0 -174 -59.5t-91 -154.5zM623 724
h44q-19 -45 -42 -70q-34 -38 -84 -38q-38 0 -84 26q-50 26 -74 26q-20 0 -34.5 -9.5t-19.5 -18.5t-11 -24h-44q46 108 126 108q38 0 84 -26q50 -26 74 -26q20 0 34.5 9.5t19.5 18.5t11 24z" />
    <glyph glyph-name="odieresis" unicode="&#xf6;" horiz-adv-x="668" 
d="M93 260q24 117 117 196.5t235 79.5q143 0 202.5 -79.5t35.5 -196.5q-26 -117 -118.5 -196.5t-234.5 -79.5q-143 0 -203 80t-34 196zM167 260q-20 -95 26.5 -154.5t149.5 -59.5q102 0 174 59.5t92 154.5t-27.5 154.5t-149.5 59.5q-103 0 -174 -59.5t-91 -154.5zM532 615
l23 110h74l-23 -110h-74zM306 615l23 110h74l-23 -110h-74z" />
    <glyph glyph-name="divide" unicode="&#xf7;" horiz-adv-x="600" 
d="M254 47q5 23 24.5 39t42.5 16t35.5 -16t7.5 -39t-24 -39t-42 -16t-36 16t-8 39zM340 459q5 23 24 39t42 16t36 -16t8 -39t-24.5 -39t-42.5 -16t-35.5 16t-7.5 39zM94 228l10 50h506l-10 -50h-506z" />
    <glyph glyph-name="oslash" unicode="&#xf8;" horiz-adv-x="668" 
d="M591 399l-389 -303q47 -50 141 -50q102 0 174 59.5t92 154.5q16 84 -18 139zM41 10l81 63q-53 75 -29 187q24 117 117 196.5t235 79.5q125 0 188 -65l83 65l19 -26l-82 -63q53 -75 30 -187q-26 -117 -118.5 -196.5t-234.5 -79.5q-125 0 -188 65l-83 -65zM184 121l389 303
q-48 50 -141 50q-103 0 -174 -59.5t-91 -154.5q-18 -83 17 -139z" />
    <glyph glyph-name="ugrave" unicode="&#xf9;" horiz-adv-x="630" 
d="M499 0l21 102h-2q-29 -47 -94.5 -82.5t-145.5 -35.5q-122 0 -161.5 56.5t-18.5 157.5l67 322h74l-70 -335q-28 -139 128 -139q106 0 169 50t82 142l59 282h74l-108 -520h-74zM386 741l86 -142h-61l-116 142h91z" />
    <glyph glyph-name="uacute" unicode="&#xfa;" horiz-adv-x="630" 
d="M499 0l21 102h-2q-29 -47 -94.5 -82.5t-145.5 -35.5q-122 0 -161.5 56.5t-18.5 157.5l67 322h74l-70 -335q-28 -139 128 -139q106 0 169 50t82 142l59 282h74l-108 -520h-74zM404 599l144 142h91l-174 -142h-61z" />
    <glyph glyph-name="ucircumflex" unicode="&#xfb;" horiz-adv-x="630" 
d="M499 0l21 102h-2q-29 -47 -94.5 -82.5t-145.5 -35.5q-122 0 -161.5 56.5t-18.5 157.5l67 322h74l-70 -335q-28 -139 128 -139q106 0 169 50t82 142l59 282h74l-108 -520h-74zM259 599l172 142h80l114 -142h-75l-87 101l-129 -101h-75z" />
    <glyph glyph-name="udieresis" unicode="&#xfc;" horiz-adv-x="630" 
d="M499 0l21 102h-2q-29 -47 -94.5 -82.5t-145.5 -35.5q-122 0 -161.5 56.5t-18.5 157.5l67 322h74l-70 -335q-28 -139 128 -139q106 0 169 50t82 142l59 282h74l-108 -520h-74zM517 615l23 110h74l-23 -110h-74zM291 615l23 110h74l-23 -110h-74z" />
    <glyph glyph-name="yacute" unicode="&#xfd;" horiz-adv-x="556" 
d="M304 87l286 433h80l-411 -617q-42 -62 -77 -83.5t-96 -21.5h-36q-13 0 -35 2l13 62q32 -2 52 -2q41 0 66.5 13t50.5 51l49 72l-144 524h80zM371 599l144 142h91l-174 -142h-61z" />
    <glyph glyph-name="thorn" unicode="&#xfe;" horiz-adv-x="667" 
d="M181 260q-20 -87 23.5 -150.5t149.5 -63.5q90 0 161.5 58.5t92.5 155.5q10 39 4 77.5t-22 68.5t-54.5 49t-92.5 19q-95 0 -168.5 -57.5t-93.5 -156.5zM15 -202l191 922h74l-63 -304h2q18 23 32.5 38t43.5 37t70 33.5t91 11.5q76 0 128.5 -25.5t74 -65t29 -88.5t-5.5 -97
q-26 -118 -114.5 -197t-226.5 -79q-71 0 -122 34.5t-65 85.5h-2l-63 -306h-74z" />
    <glyph glyph-name="ydieresis" unicode="&#xff;" horiz-adv-x="556" 
d="M304 87l286 433h80l-411 -617q-42 -62 -77 -83.5t-96 -21.5h-36q-13 0 -35 2l13 62q32 -2 52 -2q41 0 66.5 13t50.5 51l49 72l-144 524h80zM481 615l23 110h74l-23 -110h-74zM255 615l23 110h74l-23 -110h-74z" />
    <glyph glyph-name="Amacron" unicode="&#x100;" horiz-adv-x="722" 
d="M642 0l-50 217h-376l-142 -217h-80l472 714h86l176 -714h-86zM576 285l-83 355l-233 -355h316zM329 812l13 56h386l-12 -56h-387z" />
    <glyph glyph-name="amacron" unicode="&#x101;" horiz-adv-x="611" 
d="M195 360h-68q28 88 93 132t192 44t175 -38.5t31 -115.5l-57 -272q-7 -32 0 -45t29 -13q14 0 40 2l-11 -50q-40 -8 -63 -8q-34 0 -50.5 14.5t-15 35t4.5 42.5h-2q-89 -104 -265 -104q-80 0 -132.5 38t-36.5 118q8 40 31 70t50.5 46.5t67 27t71 14t72.5 5.5q121 6 155 18
t42 51q11 56 -23.5 79t-127.5 23q-89 0 -137 -26t-65 -88zM512 201l17 79q-26 -15 -70.5 -21.5t-168.5 -17.5q-69 -6 -108 -28.5t-48 -67.5q-11 -57 25 -81t103 -24q83 0 159 43t91 118zM241 642l13 56h386l-12 -56h-387z" />
    <glyph glyph-name="Abreve" unicode="&#x102;" horiz-adv-x="722" 
d="M642 0l-50 217h-376l-142 -217h-80l472 714h86l176 -714h-86zM576 285l-83 355l-233 -355h316zM373 906h50q-6 -41 19 -58.5t80 -17.5q109 0 131 76h50q-39 -132 -193 -132q-74 0 -109.5 32.5t-27.5 99.5z" />
    <glyph glyph-name="abreve" unicode="&#x103;" horiz-adv-x="611" 
d="M195 360h-68q28 88 93 132t192 44t175 -38.5t31 -115.5l-57 -272q-7 -32 0 -45t29 -13q14 0 40 2l-11 -50q-40 -8 -63 -8q-34 0 -50.5 14.5t-15 35t4.5 42.5h-2q-89 -104 -265 -104q-80 0 -132.5 38t-36.5 118q8 40 31 70t50.5 46.5t67 27t71 14t72.5 5.5q121 6 155 18
t42 51q11 56 -23.5 79t-127.5 23q-89 0 -137 -26t-65 -88zM512 201l17 79q-26 -15 -70.5 -21.5t-168.5 -17.5q-69 -6 -108 -28.5t-48 -67.5q-11 -57 25 -81t103 -24q83 0 159 43t91 118zM279 736h50q-6 -41 19 -58.5t80 -17.5q109 0 131 76h50q-39 -132 -193 -132
q-74 0 -109.5 32.5t-27.5 99.5z" />
    <glyph glyph-name="Aogonek" unicode="&#x104;" horiz-adv-x="722" 
d="M713 -144l4 -35q-48 -23 -105 -23q-55 0 -76.5 22.5t-12.5 60.5q4 22 19 42q27 34 100 77l-50 217h-376l-142 -217h-80l472 714h86l176 -714h-33q-53 -36 -77.5 -60t-32.5 -53q-5 -23 7.5 -34.5t35.5 -11.5q33 0 85 15zM576 285l-83 355l-233 -355h316z" />
    <glyph glyph-name="aogonek" unicode="&#x105;" horiz-adv-x="611" 
d="M195 360h-68q28 88 93 132t192 44t175 -38.5t31 -115.5l-57 -272q-7 -32 0 -45t29 -13q14 0 40 2l-11 -50q-40 -8 -62 -8q-45 -32 -69 -54q-27 -27 -34 -55q-5 -23 7.5 -34.5t35.5 -11.5q33 0 85 15l4 -35q-48 -23 -105 -23q-55 0 -76.5 22.5t-12.5 60.5q9 40 52 76
q20 15 71 46l-1 1q-31 20 -19 84h-2q-89 -104 -265 -104q-80 0 -132.5 38t-36.5 118q8 40 31 70t50.5 46.5t67 27t71 14t72.5 5.5q121 6 155 18t42 51q11 56 -23.5 79t-127.5 23q-89 0 -137 -26t-65 -88zM512 201l17 79q-26 -15 -70.5 -21.5t-168.5 -17.5q-69 -6 -108 -28.5
t-48 -67.5q-11 -57 25 -81t103 -24q83 0 159 43t91 118z" />
    <glyph glyph-name="Cacute" unicode="&#x106;" horiz-adv-x="815" 
d="M756 272h74q-37 -124 -150.5 -207t-262.5 -83q-174 0 -256 101.5t-46 273.5q14 66 48 128.5t88.5 119.5t138 92t183.5 35q61 0 114 -14.5t96.5 -44t66 -81t16.5 -119.5h-74q4 96 -62 143.5t-171 47.5q-138 0 -235.5 -78t-128.5 -229q-15 -60 -7.5 -115t31.5 -98
t78.5 -68.5t133.5 -25.5q238 0 325 222zM534 769l144 142h91l-174 -142h-61z" />
    <glyph glyph-name="cacute" unicode="&#x107;" horiz-adv-x="611" 
d="M550 186h74q-13 -31 -34 -61t-57 -64.5t-91.5 -55.5t-122.5 -21q-138 0 -200 75.5t-35 200.5q25 123 116 199.5t234 76.5q64 0 110 -18t69 -47.5t32.5 -59.5t8.5 -61h-74q-6 124 -159 124q-107 0 -175.5 -60t-87.5 -154q-21 -98 24.5 -156t149.5 -58q78 0 134 38t84 102z
M390 599l144 142h91l-174 -142h-61z" />
    <glyph glyph-name="Ccircumflex" unicode="&#x108;" horiz-adv-x="815" 
d="M756 272h74q-37 -124 -150.5 -207t-262.5 -83q-174 0 -256 101.5t-46 273.5q14 66 48 128.5t88.5 119.5t138 92t183.5 35q61 0 114 -14.5t96.5 -44t66 -81t16.5 -119.5h-74q4 96 -62 143.5t-171 47.5q-138 0 -235.5 -78t-128.5 -229q-15 -60 -7.5 -115t31.5 -98
t78.5 -68.5t133.5 -25.5q238 0 325 222zM410 769l172 142h80l114 -142h-75l-87 101l-129 -101h-75z" />
    <glyph glyph-name="ccircumflex" unicode="&#x109;" horiz-adv-x="611" 
d="M550 186h74q-13 -31 -34 -61t-57 -64.5t-91.5 -55.5t-122.5 -21q-138 0 -200 75.5t-35 200.5q25 123 116 199.5t234 76.5q64 0 110 -18t69 -47.5t32.5 -59.5t8.5 -61h-74q-6 124 -159 124q-107 0 -175.5 -60t-87.5 -154q-21 -98 24.5 -156t149.5 -58q78 0 134 38t84 102z
M267 599l172 142h80l114 -142h-75l-87 101l-129 -101h-75z" />
    <glyph glyph-name="Cdotaccent" unicode="&#x10a;" horiz-adv-x="815" 
d="M756 272h74q-37 -124 -150.5 -207t-262.5 -83q-174 0 -256 101.5t-46 273.5q14 66 48 128.5t88.5 119.5t138 92t183.5 35q61 0 114 -14.5t96.5 -44t66 -81t16.5 -119.5h-74q4 96 -62 143.5t-171 47.5q-138 0 -235.5 -78t-128.5 -229q-15 -60 -7.5 -115t31.5 -98
t78.5 -68.5t133.5 -25.5q238 0 325 222zM540 785l23 110h74l-23 -110h-74z" />
    <glyph glyph-name="cdotaccent" unicode="&#x10b;" horiz-adv-x="611" 
d="M550 186h74q-13 -31 -34 -61t-57 -64.5t-91.5 -55.5t-122.5 -21q-138 0 -200 75.5t-35 200.5q25 123 116 199.5t234 76.5q64 0 110 -18t69 -47.5t32.5 -59.5t8.5 -61h-74q-6 124 -159 124q-107 0 -175.5 -60t-87.5 -154q-21 -98 24.5 -156t149.5 -58q78 0 134 38t84 102z
M394 615l23 110h74l-23 -110h-74z" />
    <glyph glyph-name="Ccaron" unicode="&#x10c;" horiz-adv-x="815" 
d="M756 272h74q-37 -124 -150.5 -207t-262.5 -83q-174 0 -256 101.5t-46 273.5q14 66 48 128.5t88.5 119.5t138 92t183.5 35q61 0 114 -14.5t96.5 -44t66 -81t16.5 -119.5h-74q4 96 -62 143.5t-171 47.5q-138 0 -235.5 -78t-128.5 -229q-15 -60 -7.5 -115t31.5 -98
t78.5 -68.5t133.5 -25.5q238 0 325 222zM780 911l-172 -142h-80l-114 142h75l87 -101l129 101h75z" />
    <glyph glyph-name="ccaron" unicode="&#x10d;" horiz-adv-x="611" 
d="M550 186h74q-13 -31 -34 -61t-57 -64.5t-91.5 -55.5t-122.5 -21q-138 0 -200 75.5t-35 200.5q25 123 116 199.5t234 76.5q64 0 110 -18t69 -47.5t32.5 -59.5t8.5 -61h-74q-6 124 -159 124q-107 0 -175.5 -60t-87.5 -154q-21 -98 24.5 -156t149.5 -58q78 0 134 38t84 102z
M647 741l-172 -142h-80l-114 142h75l87 -101l129 101h75z" />
    <glyph glyph-name="Dcaron" unicode="&#x10e;" horiz-adv-x="778" 
d="M274 646l-120 -578h270q50 0 94.5 15t85.5 47t72 90t47 137q60 289 -179 289h-270zM66 0l148 714h347q154 0 215 -93.5t27 -263.5q-34 -157 -134 -257t-245 -100h-358zM696 911l-172 -142h-80l-114 142h75l87 -101l129 101h75z" />
    <glyph glyph-name="dcaron" unicode="&#x10f;" horiz-adv-x="754" 
d="M536 0l21 104h-2q-29 -44 -91 -82t-146 -38q-62 0 -108 16.5t-71 44t-39.5 63.5t-13.5 74.5t7 77.5q24 117 113 196.5t227 79.5q71 0 120.5 -34t66.5 -86h2l63 304h74l-149 -720h-74zM594 260q17 88 -25.5 151t-148.5 63q-90 0 -161.5 -58.5t-91.5 -155.5
q-10 -39 -4.5 -77.5t21.5 -68.5t54 -49t93 -19q96 0 169 57t94 157zM791 578l54 142h83l-86 -142h-51z" />
    <glyph glyph-name="Dcroat" unicode="&#x110;" horiz-adv-x="778" 
d="M274 646l-51 -243h258l-11 -56h-258l-58 -279h270q50 0 94.5 15t85.5 47t72 90t47 137q60 289 -179 289h-270zM66 0l72 347h-66l11 56h66l65 311h347q154 0 215 -93.5t27 -263.5q-34 -157 -134 -257t-245 -100h-358z" />
    <glyph glyph-name="dcroat" unicode="&#x111;" horiz-adv-x="732" 
d="M536 0l21 104h-2q-29 -44 -91 -82t-146 -38q-62 0 -108 16.5t-71 44t-39.5 63.5t-13.5 74.5t7 77.5q24 117 113 196.5t227 79.5q71 0 120.5 -34t66.5 -86h2l35 168h-190l13 56h188l17 80h74l-17 -80h100l-12 -56h-99l-121 -584h-74zM594 260q17 88 -25.5 151t-148.5 63
q-90 0 -161.5 -58.5t-91.5 -155.5q-10 -39 -4.5 -77.5t21.5 -68.5t54 -49t93 -19q96 0 169 57t94 157z" />
    <glyph glyph-name="Emacron" unicode="&#x112;" horiz-adv-x="685" 
d="M78 0l148 714h568l-14 -68h-494l-51 -242h476l-14 -68h-476l-55 -268h502l-14 -68h-576zM329 812l13 56h386l-12 -56h-387z" />
    <glyph glyph-name="emacron" unicode="&#x113;" horiz-adv-x="648" 
d="M562 166h74q-41 -78 -120.5 -130t-197.5 -52q-62 0 -108 16.5t-71 44t-39.5 63.5t-13.5 74.5t7 77.5q24 117 113 196.5t227 79.5q36 0 67.5 -5.5t63 -18.5t53.5 -35t39 -54.5t18 -77t-9 -103.5h-502q-19 -84 26.5 -140t141.5 -56q90 0 144 29t87 91zM174 298h428
q4 90 -46 133t-131 43q-80 0 -150.5 -43.5t-100.5 -132.5zM265 642l13 56h386l-12 -56h-387z" />
    <glyph glyph-name="Ebreve" unicode="&#x114;" horiz-adv-x="685" 
d="M78 0l148 714h568l-14 -68h-494l-51 -242h476l-14 -68h-476l-55 -268h502l-14 -68h-576zM365 906h50q-6 -41 19 -58.5t80 -17.5q109 0 131 76h50q-39 -132 -193 -132q-74 0 -109.5 32.5t-27.5 99.5z" />
    <glyph glyph-name="ebreve" unicode="&#x115;" horiz-adv-x="648" 
d="M562 166h74q-41 -78 -120.5 -130t-197.5 -52q-62 0 -108 16.5t-71 44t-39.5 63.5t-13.5 74.5t7 77.5q24 117 113 196.5t227 79.5q36 0 67.5 -5.5t63 -18.5t53.5 -35t39 -54.5t18 -77t-9 -103.5h-502q-19 -84 26.5 -140t141.5 -56q90 0 144 29t87 91zM174 298h428
q4 90 -46 133t-131 43q-80 0 -150.5 -43.5t-100.5 -132.5zM301 736h50q-6 -41 19 -58.5t80 -17.5q109 0 131 76h50q-39 -132 -193 -132q-74 0 -109.5 32.5t-27.5 99.5z" />
    <glyph glyph-name="Edotaccent" unicode="&#x116;" horiz-adv-x="685" 
d="M78 0l148 714h568l-14 -68h-494l-51 -242h476l-14 -68h-476l-55 -268h502l-14 -68h-576zM476 785l23 110h74l-23 -110h-74z" />
    <glyph glyph-name="edotaccent" unicode="&#x117;" horiz-adv-x="648" 
d="M562 166h74q-41 -78 -120.5 -130t-197.5 -52q-62 0 -108 16.5t-71 44t-39.5 63.5t-13.5 74.5t7 77.5q24 117 113 196.5t227 79.5q36 0 67.5 -5.5t63 -18.5t53.5 -35t39 -54.5t18 -77t-9 -103.5h-502q-19 -84 26.5 -140t141.5 -56q90 0 144 29t87 91zM174 298h428
q4 90 -46 133t-131 43q-80 0 -150.5 -43.5t-100.5 -132.5zM400 615l23 110h74l-23 -110h-74z" />
    <glyph glyph-name="Eogonek" unicode="&#x118;" horiz-adv-x="685" 
d="M613 -144l4 -35q-48 -23 -105 -23q-55 0 -76.5 22.5t-12.5 60.5q4 22 19 42q27 34 100 77h-464l148 714h568l-14 -68h-494l-51 -242h476l-14 -68h-476l-55 -268h502l-14 -68h-59q-53 -36 -77.5 -60t-32.5 -53q-5 -23 7.5 -34.5t35.5 -11.5q33 0 85 15z" />
    <glyph glyph-name="eogonek" unicode="&#x119;" horiz-adv-x="648" 
d="M399 -144l4 -35q-48 -23 -105 -23q-55 0 -76.5 22.5t-12.5 60.5q9 40 52 76q9 7 40 27q-70 3 -112 25q-69 37 -91 103.5t-5 147.5q24 117 113 196.5t227 79.5q36 0 67.5 -5.5t63 -18.5t53.5 -35t39 -54.5t18 -77t-9 -103.5h-502q-19 -84 26.5 -140t141.5 -56q90 0 144 29
t87 91h74q-64 -125 -203 -166q-30 -9 -73 -14q-42 -31 -55 -44q-27 -27 -34 -55q-5 -23 7.5 -34.5t35.5 -11.5q33 0 85 15zM174 298h428q4 90 -46 133t-131 43q-80 0 -150.5 -43.5t-100.5 -132.5z" />
    <glyph glyph-name="Ecaron" unicode="&#x11a;" horiz-adv-x="685" 
d="M78 0l148 714h568l-14 -68h-494l-51 -242h476l-14 -68h-476l-55 -268h502l-14 -68h-576zM724 911l-172 -142h-80l-114 142h75l87 -101l129 101h75z" />
    <glyph glyph-name="ecaron" unicode="&#x11b;" horiz-adv-x="648" 
d="M562 166h74q-41 -78 -120.5 -130t-197.5 -52q-62 0 -108 16.5t-71 44t-39.5 63.5t-13.5 74.5t7 77.5q24 117 113 196.5t227 79.5q36 0 67.5 -5.5t63 -18.5t53.5 -35t39 -54.5t18 -77t-9 -103.5h-502q-19 -84 26.5 -140t141.5 -56q90 0 144 29t87 91zM174 298h428
q4 90 -46 133t-131 43q-80 0 -150.5 -43.5t-100.5 -132.5zM648 741l-172 -142h-80l-114 142h75l87 -101l129 101h75z" />
    <glyph glyph-name="Gcircumflex" unicode="&#x11c;" horiz-adv-x="852" 
d="M729 0l18 135h-2q-74 -80 -150 -116.5t-179 -36.5q-178 0 -255.5 102t-40.5 273q34 165 159.5 270t300.5 105q144 0 222 -70t72 -174h-80q-4 88 -65.5 132t-162.5 44q-145 0 -240.5 -82t-125.5 -225q-30 -146 26.5 -226.5t197.5 -80.5q262 0 356 250h-262l14 68h330
l-76 -368h-57zM407 769l172 142h80l114 -142h-75l-87 101l-129 -101h-75z" />
    <glyph glyph-name="gcircumflex" unicode="&#x11d;" horiz-adv-x="667" 
d="M625 419l21 101h74l-104 -500q-14 -69 -50 -118t-85.5 -74.5t-100 -36.5t-106.5 -11q-57 0 -100 8.5t-66.5 22.5t-40 32.5t-19.5 37t-6 36.5t1 32h68q0 -22 1.5 -34t10.5 -29.5t26.5 -26.5t52.5 -16t86 -7q104 0 169.5 48t85.5 141l19 93h-2q-89 -118 -254 -118
q-52 0 -95.5 14t-79.5 45.5t-47 83.5t2 128q24 112 112 188.5t227 76.5q78 0 131 -29.5t67 -87.5h2zM596 271q19 86 -27.5 144.5t-152.5 58.5q-99 0 -167.5 -54t-88.5 -149q-23 -108 26 -158.5t150 -50.5q94 0 166.5 56t93.5 153zM285 599l172 142h80l114 -142h-75l-87 101
l-129 -101h-75z" />
    <glyph glyph-name="Gbreve" unicode="&#x11e;" horiz-adv-x="852" 
d="M729 0l18 135h-2q-74 -80 -150 -116.5t-179 -36.5q-178 0 -255.5 102t-40.5 273q34 165 159.5 270t300.5 105q144 0 222 -70t72 -174h-80q-4 88 -65.5 132t-162.5 44q-145 0 -240.5 -82t-125.5 -225q-30 -146 26.5 -226.5t197.5 -80.5q262 0 356 250h-262l14 68h330
l-76 -368h-57zM442 906h50q-6 -41 19 -58.5t80 -17.5q109 0 131 76h50q-39 -132 -193 -132q-74 0 -109.5 32.5t-27.5 99.5z" />
    <glyph glyph-name="gbreve" unicode="&#x11f;" horiz-adv-x="667" 
d="M625 419l21 101h74l-104 -500q-14 -69 -50 -118t-85.5 -74.5t-100 -36.5t-106.5 -11q-57 0 -100 8.5t-66.5 22.5t-40 32.5t-19.5 37t-6 36.5t1 32h68q0 -22 1.5 -34t10.5 -29.5t26.5 -26.5t52.5 -16t86 -7q104 0 169.5 48t85.5 141l19 93h-2q-89 -118 -254 -118
q-52 0 -95.5 14t-79.5 45.5t-47 83.5t2 128q24 112 112 188.5t227 76.5q78 0 131 -29.5t67 -87.5h2zM596 271q19 86 -27.5 144.5t-152.5 58.5q-99 0 -167.5 -54t-88.5 -149q-23 -108 26 -158.5t150 -50.5q94 0 166.5 56t93.5 153zM307 736h50q-6 -41 19 -58.5t80 -17.5
q109 0 131 76h50q-39 -132 -193 -132q-74 0 -109.5 32.5t-27.5 99.5z" />
    <glyph glyph-name="Gdotaccent" unicode="&#x120;" horiz-adv-x="852" 
d="M729 0l18 135h-2q-74 -80 -150 -116.5t-179 -36.5q-178 0 -255.5 102t-40.5 273q34 165 159.5 270t300.5 105q144 0 222 -70t72 -174h-80q-4 88 -65.5 132t-162.5 44q-145 0 -240.5 -82t-125.5 -225q-30 -146 26.5 -226.5t197.5 -80.5q262 0 356 250h-262l14 68h330
l-76 -368h-57zM536 785l23 110h74l-23 -110h-74z" />
    <glyph glyph-name="gdotaccent" unicode="&#x121;" horiz-adv-x="667" 
d="M625 419l21 101h74l-104 -500q-14 -69 -50 -118t-85.5 -74.5t-100 -36.5t-106.5 -11q-57 0 -100 8.5t-66.5 22.5t-40 32.5t-19.5 37t-6 36.5t1 32h68q0 -22 1.5 -34t10.5 -29.5t26.5 -26.5t52.5 -16t86 -7q104 0 169.5 48t85.5 141l19 93h-2q-89 -118 -254 -118
q-52 0 -95.5 14t-79.5 45.5t-47 83.5t2 128q24 112 112 188.5t227 76.5q78 0 131 -29.5t67 -87.5h2zM596 271q19 86 -27.5 144.5t-152.5 58.5q-99 0 -167.5 -54t-88.5 -149q-23 -108 26 -158.5t150 -50.5q94 0 166.5 56t93.5 153zM402 615l23 110h74l-23 -110h-74z" />
    <glyph glyph-name="Gcommaaccent" unicode="&#x122;" horiz-adv-x="852" 
d="M729 0l18 135h-2q-74 -80 -150 -116.5t-179 -36.5q-178 0 -255.5 102t-40.5 273q34 165 159.5 270t300.5 105q144 0 222 -70t72 -174h-80q-4 88 -65.5 132t-162.5 44q-145 0 -240.5 -82t-125.5 -225q-30 -146 26.5 -226.5t197.5 -80.5q262 0 356 250h-262l14 68h330
l-76 -368h-57zM350 -150l21 100h76l-19 -91q-16 -73 -96 -79l6 31q36 8 42 39h-30z" />
    <glyph glyph-name="gcommaaccent" unicode="&#x123;" horiz-adv-x="667" 
d="M625 419l21 101h74l-104 -500q-14 -69 -50 -118t-85.5 -74.5t-100 -36.5t-106.5 -11q-57 0 -100 8.5t-66.5 22.5t-40 32.5t-19.5 37t-6 36.5t1 32h68q0 -22 1.5 -34t10.5 -29.5t26.5 -26.5t52.5 -16t86 -7q104 0 169.5 48t85.5 141l19 93h-2q-89 -118 -254 -118
q-52 0 -95.5 14t-79.5 45.5t-47 83.5t2 128q24 112 112 188.5t227 76.5q78 0 131 -29.5t67 -87.5h2zM596 271q19 86 -27.5 144.5t-152.5 58.5q-99 0 -167.5 -54t-88.5 -149q-23 -108 26 -158.5t150 -50.5q94 0 166.5 56t93.5 153zM414 1340l-21 -100h-76l19 91q16 73 97 79
l-7 -31q-33 -8 -42 -39h30zM490 720l-21 -100h-76l19 91q16 73 97 79l-7 -31q-33 -8 -42 -39h30z" />
    <glyph glyph-name="Hcircumflex" unicode="&#x124;" horiz-adv-x="796" 
d="M66 0l148 714h74l-63 -302h516l63 302h74l-148 -714h-74l71 344h-516l-71 -344h-74zM374 769l172 142h80l114 -142h-75l-87 101l-129 -101h-75z" />
    <glyph glyph-name="hcircumflex" unicode="&#x125;" horiz-adv-x="630" 
d="M57 0l149 720h74l-63 -302h2q29 47 94.5 82.5t145.5 35.5q227 0 180 -214l-66 -322h-74l69 335q15 74 -19 106.5t-109 32.5q-106 0 -169 -50t-82 -142l-58 -282h-74zM285 769l172 142h80l114 -142h-75l-87 101l-129 -101h-75z" />
    <glyph glyph-name="Hbar" unicode="&#x126;" horiz-adv-x="796" 
d="M66 0l148 714h74l-34 -166h516l34 166h74l-148 -714h-74l70 334h-516l-70 -334h-74zM224 402h516l18 90h-516z" />
    <glyph glyph-name="hbar" unicode="&#x127;" horiz-adv-x="695" 
d="M142 584l13 56h99l17 80h74l-17 -80h173l-12 -56h-173l-34 -166h2q29 47 94.5 82.5t145.5 35.5q227 0 180 -214l-66 -322h-74l69 335q15 74 -19 106.5t-109 32.5q-106 0 -169 -50t-82 -142l-58 -282h-74l121 584h-101z" />
    <glyph glyph-name="Itilde" unicode="&#x128;" horiz-adv-x="222" 
d="M74 0l148 714h74l-148 -714h-74zM430 894h44q-19 -45 -42 -70q-34 -38 -84 -38q-38 0 -84 26q-50 26 -74 26q-20 0 -34.5 -9.5t-19.5 -18.5t-11 -24h-44q46 108 126 108q38 0 84 -26q50 -26 74 -26q20 0 34.5 9.5t19.5 18.5t11 24z" />
    <glyph glyph-name="itilde" unicode="&#x129;" 
d="M55 0l108 520h74l-108 -520h-74zM368 724h44q-19 -45 -42 -70q-34 -38 -84 -38q-38 0 -84 26q-50 26 -74 26q-20 0 -34.5 -9.5t-19.5 -18.5t-11 -24h-44q46 108 126 108q38 0 84 -26q50 -26 74 -26q20 0 34.5 9.5t19.5 18.5t11 24z" />
    <glyph glyph-name="Imacron" unicode="&#x12a;" horiz-adv-x="222" 
d="M74 0l148 714h74l-148 -714h-74zM74 812l13 56h386l-12 -56h-387z" />
    <glyph glyph-name="imacron" unicode="&#x12b;" 
d="M55 0l108 520h74l-108 -520h-74zM17 642l13 56h386l-12 -56h-387z" />
    <glyph glyph-name="Iogonek" unicode="&#x12e;" horiz-adv-x="222" 
d="M164 -144l3 -35q-44 -23 -94 -23q-49 0 -68 22.5t-12 60.5q5 26 17 42q23 33 90 77h-26l148 714h74l-148 -714q-48 -36 -70.5 -60.5t-28.5 -52.5q-5 -23 6 -34.5t32 -11.5q30 0 77 15z" />
    <glyph glyph-name="iogonek" unicode="&#x12f;" 
d="M145 -144l3 -35q-44 -23 -94 -23q-49 0 -68 22.5t-12 60.5q5 26 17 42q23 33 90 77h-26l108 520h74l-108 -520q-48 -36 -70.5 -60.5t-28.5 -52.5q-5 -23 6 -34.5t32 -11.5q30 0 77 15zM181 610l23 110h74l-23 -110h-74z" />
    <glyph glyph-name="Idotaccent" unicode="&#x130;" horiz-adv-x="222" 
d="M74 0l148 714h74l-148 -714h-74zM233 785l23 110h74l-23 -110h-74z" />
    <glyph glyph-name="dotlessi" unicode="&#x131;" 
d="M55 0l108 520h74l-108 -520h-74z" />
    <glyph glyph-name="Jcircumflex" unicode="&#x134;" horiz-adv-x="556" 
d="M147 234l-5 -26q-36 -164 124 -164q80 0 127 38t68 138l103 494h74l-107 -514q-21 -100 -92.5 -159t-189.5 -59q-46 0 -80.5 10t-54.5 24t-32 38t-16.5 43t-3 49t3.5 45.5t7 42.5h74zM421 769l172 142h80l114 -142h-75l-87 101l-129 -101h-75z" />
    <glyph glyph-name="jcircumflex" unicode="&#x135;" 
d="M-121 -217l13 62q16 -3 50 -3q47 0 67 18.5t29 60.5l125 599h74l-125 -599q-28 -141 -163 -141q-1 0 -70 3zM20 599l172 142h80l114 -142h-75l-87 101l-129 -101h-75z" />
    <glyph glyph-name="Kcommaaccent" unicode="&#x136;" horiz-adv-x="741" 
d="M78 0l148 714h74l-80 -386l541 386h107l-415 -295l291 -419h-105l-255 369l-182 -128l-50 -241h-74zM323 -150l21 100h76l-19 -91q-16 -73 -96 -79l6 31q36 8 42 39h-30z" />
    <glyph glyph-name="kcommaaccent" unicode="&#x137;" horiz-adv-x="574" 
d="M57 0l149 720h74l-94 -453l370 253h110l-296 -197l207 -323h-98l-174 275l-136 -89l-38 -186h-74zM237 -150l21 100h76l-19 -91q-16 -73 -96 -79l6 31q36 8 42 39h-30z" />
    <glyph glyph-name="Lacute" unicode="&#x139;" horiz-adv-x="593" 
d="M66 0l148 714h74l-134 -646h453l-14 -68h-527zM228 769l144 142h91l-174 -142h-61z" />
    <glyph glyph-name="lacute" unicode="&#x13a;" 
d="M55 0l149 720h74l-149 -720h-74zM208 769l144 142h91l-174 -142h-61z" />
    <glyph glyph-name="Lcommaaccent" unicode="&#x13b;" horiz-adv-x="593" 
d="M66 0l148 714h74l-134 -646h453l-14 -68h-527zM267 -150l21 100h76l-19 -91q-16 -73 -96 -79l6 31q36 8 42 39h-30z" />
    <glyph glyph-name="lcommaaccent" unicode="&#x13c;" 
d="M55 0l149 720h74l-149 -720h-74zM24 -150l21 100h76l-19 -91q-16 -73 -96 -79l6 31q36 8 42 39h-30z" />
    <glyph glyph-name="Lcaron" unicode="&#x13d;" horiz-adv-x="593" 
d="M66 0l148 714h74l-134 -646h453l-14 -68h-527zM372 578l54 142h83l-86 -142h-51z" />
    <glyph glyph-name="lcaron" unicode="&#x13e;" horiz-adv-x="272" 
d="M55 0l149 720h74l-149 -720h-74zM309 578l54 142h83l-86 -142h-51z" />
    <glyph glyph-name="Ldot" unicode="&#x13f;" horiz-adv-x="593" 
d="M66 0l148 714h74l-134 -646h453l-14 -68h-527zM347 410l23 110h74l-23 -110h-74z" />
    <glyph glyph-name="ldot" unicode="&#x140;" horiz-adv-x="266" 
d="M55 0l149 720h74l-149 -720h-74zM269 370l23 110h74l-23 -110h-74z" />
    <glyph glyph-name="Lslash" unicode="&#x141;" horiz-adv-x="593" 
d="M214 360l241 146l-13 -62l-241 -146l-47 -230h453l-14 -68h-527l51 247l-89 -54l13 62l89 54l84 405h74z" />
    <glyph glyph-name="lslash" unicode="&#x142;" 
d="M213 405l63 41l-11 -56l-64 -41l-72 -349h-74l62 299l-64 -42l12 56l63 42l76 365h74z" />
    <glyph glyph-name="Nacute" unicode="&#x143;" horiz-adv-x="796" 
d="M66 0l148 714h89l372 -610h2l127 610h74l-148 -714h-86l-376 610h-2l-126 -610h-74zM515 769l144 142h91l-174 -142h-61z" />
    <glyph glyph-name="nacute" unicode="&#x144;" horiz-adv-x="630" 
d="M499 0l69 335q15 74 -19 106.5t-109 32.5q-106 0 -169 -50t-82 -142l-58 -282h-74l108 520h74l-22 -102h2q29 47 94.5 82.5t145.5 35.5q227 0 180 -214l-66 -322h-74zM381 599l144 142h91l-174 -142h-61z" />
    <glyph glyph-name="Ncommaaccent" unicode="&#x145;" horiz-adv-x="796" 
d="M66 0l148 714h89l372 -610h2l127 610h74l-148 -714h-86l-376 610h-2l-126 -610h-74zM330 -150l21 100h76l-19 -91q-16 -73 -96 -79l6 31q36 8 42 39h-30z" />
    <glyph glyph-name="ncommaaccent" unicode="&#x146;" horiz-adv-x="630" 
d="M499 0l69 335q15 74 -19 106.5t-109 32.5q-106 0 -169 -50t-82 -142l-58 -282h-74l108 520h74l-22 -102h2q29 47 94.5 82.5t145.5 35.5q227 0 180 -214l-66 -322h-74zM253 -150l21 100h76l-19 -91q-16 -73 -96 -79l6 31q36 8 42 39h-30z" />
    <glyph glyph-name="Ncaron" unicode="&#x147;" horiz-adv-x="796" 
d="M66 0l148 714h89l372 -610h2l127 610h74l-148 -714h-86l-376 610h-2l-126 -610h-74zM758 911l-172 -142h-80l-114 142h75l87 -101l129 101h75z" />
    <glyph glyph-name="ncaron" unicode="&#x148;" horiz-adv-x="630" 
d="M499 0l69 335q15 74 -19 106.5t-109 32.5q-106 0 -169 -50t-82 -142l-58 -282h-74l108 520h74l-22 -102h2q29 47 94.5 82.5t145.5 35.5q227 0 180 -214l-66 -322h-74zM632 741l-172 -142h-80l-114 142h75l87 -101l129 101h75z" />
    <glyph glyph-name="Omacron" unicode="&#x14c;" horiz-adv-x="852" 
d="M192 357q-15 -81 -3 -139t49 -95.5t87 -55t111 -17.5q129 0 234.5 77.5t137.5 229.5q30 152 -42.5 229.5t-201.5 77.5q-82 0 -156 -30.5t-135 -102t-81 -174.5zM112 357q24 121 98 208t169 127t199 40q163 0 254.5 -97.5t55.5 -277.5q-25 -121 -99 -208t-168 -127
t-199 -40q-78 0 -141.5 23t-109.5 70t-61.5 117t2.5 165zM399 812l13 56h386l-12 -56h-387z" />
    <glyph glyph-name="omacron" unicode="&#x14d;" horiz-adv-x="668" 
d="M93 260q24 117 117 196.5t235 79.5q143 0 202.5 -79.5t35.5 -196.5q-26 -117 -118.5 -196.5t-234.5 -79.5q-143 0 -203 80t-34 196zM167 260q-20 -95 26.5 -154.5t149.5 -59.5q102 0 174 59.5t92 154.5t-27.5 154.5t-149.5 59.5q-103 0 -174 -59.5t-91 -154.5zM273 642
l13 56h386l-12 -56h-387z" />
    <glyph glyph-name="Obreve" unicode="&#x14e;" horiz-adv-x="852" 
d="M192 357q-15 -81 -3 -139t49 -95.5t87 -55t111 -17.5q129 0 234.5 77.5t137.5 229.5q30 152 -42.5 229.5t-201.5 77.5q-82 0 -156 -30.5t-135 -102t-81 -174.5zM112 357q24 121 98 208t169 127t199 40q163 0 254.5 -97.5t55.5 -277.5q-25 -121 -99 -208t-168 -127
t-199 -40q-78 0 -141.5 23t-109.5 70t-61.5 117t2.5 165zM431 906h50q-6 -41 19 -58.5t80 -17.5q109 0 131 76h50q-39 -132 -193 -132q-74 0 -109.5 32.5t-27.5 99.5z" />
    <glyph glyph-name="obreve" unicode="&#x14f;" horiz-adv-x="668" 
d="M93 260q24 117 117 196.5t235 79.5q143 0 202.5 -79.5t35.5 -196.5q-26 -117 -118.5 -196.5t-234.5 -79.5q-143 0 -203 80t-34 196zM167 260q-20 -95 26.5 -154.5t149.5 -59.5q102 0 174 59.5t92 154.5t-27.5 154.5t-149.5 59.5q-103 0 -174 -59.5t-91 -154.5zM309 736
h50q-6 -41 19 -58.5t80 -17.5q109 0 131 76h50q-39 -132 -193 -132q-74 0 -109.5 32.5t-27.5 99.5z" />
    <glyph glyph-name="Ohungarumlaut" unicode="&#x150;" horiz-adv-x="852" 
d="M192 357q-15 -81 -3 -139t49 -95.5t87 -55t111 -17.5q129 0 234.5 77.5t137.5 229.5q30 152 -42.5 229.5t-201.5 77.5q-82 0 -156 -30.5t-135 -102t-81 -174.5zM112 357q24 121 98 208t169 127t199 40q163 0 254.5 -97.5t55.5 -277.5q-25 -121 -99 -208t-168 -127
t-199 -40q-78 0 -141.5 23t-109.5 70t-61.5 117t2.5 165zM649 769l144 142h91l-174 -142h-61zM427 769l144 142h91l-174 -142h-61z" />
    <glyph glyph-name="ohungarumlaut" unicode="&#x151;" horiz-adv-x="668" 
d="M93 260q24 117 117 196.5t235 79.5q143 0 202.5 -79.5t35.5 -196.5q-26 -117 -118.5 -196.5t-234.5 -79.5q-143 0 -203 80t-34 196zM167 260q-20 -95 26.5 -154.5t149.5 -59.5q102 0 174 59.5t92 154.5t-27.5 154.5t-149.5 59.5q-103 0 -174 -59.5t-91 -154.5zM523 599
l144 142h91l-174 -142h-61zM301 599l144 142h91l-174 -142h-61z" />
    <glyph glyph-name="OE" unicode="&#x152;" horiz-adv-x="1167" 
d="M616 0l16 78q-102 -96 -244 -96q-155 0 -234.5 97t-41.5 278q21 99 76.5 182.5t149 138t206.5 54.5q152 0 204 -86h2l14 68h515l-14 -68h-441l-51 -242h418l-14 -68h-418l-55 -268h446l-14 -68h-520zM653 178l77 373q2 8 -3.5 21t-20.5 29t-37 30t-58.5 23.5t-80.5 9.5
q-116 0 -212.5 -81.5t-125.5 -225.5q-33 -150 27 -228.5t183 -78.5q70 0 130.5 27t89 55.5t31.5 45.5z" />
    <glyph glyph-name="oe" unicode="&#x153;" horiz-adv-x="1093" 
d="M650 298h401q3 89 -44.5 132.5t-114.5 43.5q-89 0 -148 -42t-94 -134zM157 260q-20 -95 25 -154.5t142 -59.5q95 -2 161.5 53t89.5 161q19 93 -19 153.5t-140 60.5q-100 0 -169.5 -59.5t-89.5 -154.5zM1011 166h74q-39 -76 -116.5 -129t-178.5 -53q-86 0 -146 34.5
t-69 102.5q-102 -137 -279 -137q-121 0 -179.5 79t-33.5 197q24 114 115.5 195t216.5 81q105 0 153 -36.5t69 -103.5q40 63 108.5 101.5t159.5 38.5q35 0 67.5 -8t66 -28t53.5 -53t29 -84t-7 -121h-475q-38 -196 164 -196q143 0 208 120z" />
    <glyph glyph-name="Racute" unicode="&#x154;" horiz-adv-x="741" 
d="M286 646l-55 -264h313q152 0 183 139q25 125 -121 125h-320zM78 0l148 714h389q38 0 69 -5.5t59.5 -19t44.5 -35.5t23 -55t-4 -78q-13 -61 -59.5 -109t-116.5 -64l-1 -2q69 -11 86.5 -61t-0.5 -137q-22 -126 -5 -148h-80q-13 18 11 146q18 94 -13 131t-125 37h-287
l-65 -314h-74zM466 769l144 142h91l-174 -142h-61z" />
    <glyph glyph-name="racute" unicode="&#x155;" horiz-adv-x="370" 
d="M57 0l108 520h74l-25 -119h2q39 59 92 97t135 38q28 0 43 -4l-16 -76q-33 6 -66 6q-70 0 -133.5 -48t-84.5 -149l-55 -265h-74zM189 599l144 142h91l-174 -142h-61z" />
    <glyph glyph-name="Rcommaaccent" unicode="&#x156;" horiz-adv-x="741" 
d="M286 646l-55 -264h313q152 0 183 139q25 125 -121 125h-320zM78 0l148 714h389q38 0 69 -5.5t59.5 -19t44.5 -35.5t23 -55t-4 -78q-13 -61 -59.5 -109t-116.5 -64l-1 -2q69 -11 86.5 -61t-0.5 -137q-22 -126 -5 -148h-80q-13 18 11 146q18 94 -13 131t-125 37h-287
l-65 -314h-74zM322 -150l21 100h76l-19 -91q-16 -73 -96 -79l6 31q36 8 42 39h-30z" />
    <glyph glyph-name="rcommaaccent" unicode="&#x157;" horiz-adv-x="370" 
d="M57 0l108 520h74l-25 -119h2q39 59 92 97t135 38q28 0 43 -4l-16 -76q-33 6 -66 6q-70 0 -133.5 -48t-84.5 -149l-55 -265h-74zM28 -150l21 100h76l-19 -91q-16 -73 -96 -79l6 31q36 8 42 39h-30z" />
    <glyph glyph-name="Rcaron" unicode="&#x158;" horiz-adv-x="741" 
d="M286 646l-55 -264h313q152 0 183 139q25 125 -121 125h-320zM78 0l148 714h389q38 0 69 -5.5t59.5 -19t44.5 -35.5t23 -55t-4 -78q-13 -61 -59.5 -109t-116.5 -64l-1 -2q69 -11 86.5 -61t-0.5 -137q-22 -126 -5 -148h-80q-13 18 11 146q18 94 -13 131t-125 37h-287
l-65 -314h-74zM711 911l-172 -142h-80l-114 142h75l87 -101l129 101h75z" />
    <glyph glyph-name="rcaron" unicode="&#x159;" horiz-adv-x="370" 
d="M57 0l108 520h74l-25 -119h2q39 59 92 97t135 38q28 0 43 -4l-16 -76q-33 6 -66 6q-70 0 -133.5 -48t-84.5 -149l-55 -265h-74zM529 741l-172 -142h-80l-114 142h75l87 -101l129 101h75z" />
    <glyph glyph-name="Sacute" unicode="&#x15a;" horiz-adv-x="668" 
d="M730 510h-74q11 85 -42 119.5t-150 34.5q-89 0 -153 -34t-76 -92q-13 -65 38.5 -92.5t192.5 -51.5q24 -4 41.5 -7.5t40 -9t38 -11.5t34 -14.5t28.5 -18.5t22 -23.5t15 -28.5t6 -34.5t-4 -41.5q-13 -63 -48.5 -108.5t-85.5 -69.5t-101.5 -34.5t-108.5 -10.5
q-146 0 -219 59t-52 195h74q-13 -105 42 -145.5t169 -40.5q94 0 162 32.5t85 109.5q8 36 -5 61t-47 39.5t-67 22t-85 16.5q-17 3 -26 4q-129 21 -183.5 64t-37.5 126q15 74 68.5 122.5t117.5 66.5t139 18q46 0 85.5 -6.5t75 -23t58 -41t32 -63.5t1.5 -88zM455 769l144 142
h91l-174 -142h-61z" />
    <glyph glyph-name="sacute" unicode="&#x15b;" horiz-adv-x="556" 
d="M588 366h-68q-2 61 -38 84.5t-119 23.5q-148 0 -168 -89q-10 -39 23.5 -54.5t151.5 -31.5q122 -17 165 -47t28 -103q-16 -79 -87.5 -122t-193.5 -43q-127 0 -186.5 44t-39.5 135h68q-4 -65 34 -91t137 -26q84 0 133.5 21.5t60.5 77.5q8 40 -28.5 59.5t-151.5 31.5
q-120 12 -161.5 44.5t-27.5 101.5q14 70 80 112t176 42q122 0 172 -43t40 -127zM356 599l144 142h91l-174 -142h-61z" />
    <glyph glyph-name="Scircumflex" unicode="&#x15c;" horiz-adv-x="668" 
d="M730 510h-74q11 85 -42 119.5t-150 34.5q-89 0 -153 -34t-76 -92q-13 -65 38.5 -92.5t192.5 -51.5q24 -4 41.5 -7.5t40 -9t38 -11.5t34 -14.5t28.5 -18.5t22 -23.5t15 -28.5t6 -34.5t-4 -41.5q-13 -63 -48.5 -108.5t-85.5 -69.5t-101.5 -34.5t-108.5 -10.5
q-146 0 -219 59t-52 195h74q-13 -105 42 -145.5t169 -40.5q94 0 162 32.5t85 109.5q8 36 -5 61t-47 39.5t-67 22t-85 16.5q-17 3 -26 4q-129 21 -183.5 64t-37.5 126q15 74 68.5 122.5t117.5 66.5t139 18q46 0 85.5 -6.5t75 -23t58 -41t32 -63.5t1.5 -88zM305 769l172 142
h80l114 -142h-75l-87 101l-129 -101h-75z" />
    <glyph glyph-name="scircumflex" unicode="&#x15d;" horiz-adv-x="556" 
d="M588 366h-68q-2 61 -38 84.5t-119 23.5q-148 0 -168 -89q-10 -39 23.5 -54.5t151.5 -31.5q122 -17 165 -47t28 -103q-16 -79 -87.5 -122t-193.5 -43q-127 0 -186.5 44t-39.5 135h68q-4 -65 34 -91t137 -26q84 0 133.5 21.5t60.5 77.5q8 40 -28.5 59.5t-151.5 31.5
q-120 12 -161.5 44.5t-27.5 101.5q14 70 80 112t176 42q122 0 172 -43t40 -127zM219 599l172 142h80l114 -142h-75l-87 101l-129 -101h-75z" />
    <glyph glyph-name="Scedilla" unicode="&#x15e;" horiz-adv-x="668" 
d="M730 510h-74q11 85 -42 119.5t-150 34.5q-89 0 -153 -34t-76 -92q-13 -65 38.5 -92.5t192.5 -51.5q24 -4 41.5 -7.5t40 -9t38 -11.5t34 -14.5t28.5 -18.5t22 -23.5t15 -28.5t6 -34.5t-4 -41.5q-20 -92 -83.5 -144.5t-153.5 -68.5q-46 -8 -95 -10l-38 -42l2 -2q17 5 41 5
q39 0 58.5 -18.5t13.5 -50.5q-7 -32 -46.5 -54t-95.5 -22q-54 0 -95 17l20 35q45 -14 79 -14q67 0 76 38q3 18 -11 27t-34 9q-35 0 -55 -11l-14 17l58 67q-50 1 -94 12q-179 39 -148 241h74q-13 -105 42 -145.5t169 -40.5q94 0 162 32.5t85 109.5q8 36 -5 61t-47 39.5
t-67 22t-85 16.5q-17 3 -26 4q-129 21 -183.5 64t-37.5 126q15 74 68.5 122.5t117.5 66.5t139 18q46 0 85.5 -6.5t75 -23t58 -41t32 -63.5t1.5 -88z" />
    <glyph glyph-name="Scedilla" unicode="&#xf6c1;" horiz-adv-x="668" 
d="M730 510h-74q11 85 -42 119.5t-150 34.5q-89 0 -153 -34t-76 -92q-13 -65 38.5 -92.5t192.5 -51.5q24 -4 41.5 -7.5t40 -9t38 -11.5t34 -14.5t28.5 -18.5t22 -23.5t15 -28.5t6 -34.5t-4 -41.5q-20 -92 -83.5 -144.5t-153.5 -68.5q-46 -8 -95 -10l-38 -42l2 -2q17 5 41 5
q39 0 58.5 -18.5t13.5 -50.5q-7 -32 -46.5 -54t-95.5 -22q-54 0 -95 17l20 35q45 -14 79 -14q67 0 76 38q3 18 -11 27t-34 9q-35 0 -55 -11l-14 17l58 67q-50 1 -94 12q-179 39 -148 241h74q-13 -105 42 -145.5t169 -40.5q94 0 162 32.5t85 109.5q8 36 -5 61t-47 39.5
t-67 22t-85 16.5q-17 3 -26 4q-129 21 -183.5 64t-37.5 126q15 74 68.5 122.5t117.5 66.5t139 18q46 0 85.5 -6.5t75 -23t58 -41t32 -63.5t1.5 -88z" />
    <glyph glyph-name="scedilla" unicode="&#x15f;" horiz-adv-x="556" 
d="M588 366h-68q-2 61 -38 84.5t-119 23.5q-148 0 -168 -89q-10 -39 23.5 -54.5t151.5 -31.5q122 -17 165 -47t28 -103q-17 -79 -87 -122q-65 -38 -169 -42l-40 -45l2 -2q17 5 41 5q39 0 58.5 -18.5t13.5 -50.5q-7 -32 -46.5 -54t-95.5 -22q-54 0 -95 17l20 35
q45 -14 79 -14q67 0 76 38q3 18 -11 27t-34 9q-35 0 -55 -11l-14 17l60 68q-50 1 -93 11q-146 32 -117 168h68q-4 -65 34 -91t137 -26q84 0 133.5 21.5t60.5 77.5q8 40 -28.5 59.5t-151.5 31.5q-120 12 -161.5 44.5t-27.5 101.5q14 70 80 112t176 42q122 0 172 -43t40 -127z
" />
    <glyph glyph-name="scedilla" unicode="&#xf6c2;" horiz-adv-x="556" 
d="M588 366h-68q-2 61 -38 84.5t-119 23.5q-148 0 -168 -89q-10 -39 23.5 -54.5t151.5 -31.5q122 -17 165 -47t28 -103q-17 -79 -87 -122q-65 -38 -169 -42l-40 -45l2 -2q17 5 41 5q39 0 58.5 -18.5t13.5 -50.5q-7 -32 -46.5 -54t-95.5 -22q-54 0 -95 17l20 35
q45 -14 79 -14q67 0 76 38q3 18 -11 27t-34 9q-35 0 -55 -11l-14 17l60 68q-50 1 -93 11q-146 32 -117 168h68q-4 -65 34 -91t137 -26q84 0 133.5 21.5t60.5 77.5q8 40 -28.5 59.5t-151.5 31.5q-120 12 -161.5 44.5t-27.5 101.5q14 70 80 112t176 42q122 0 172 -43t40 -127z
" />
    <glyph glyph-name="Scaron" unicode="&#x160;" horiz-adv-x="668" 
d="M730 510h-74q11 85 -42 119.5t-150 34.5q-89 0 -153 -34t-76 -92q-13 -65 38.5 -92.5t192.5 -51.5q24 -4 41.5 -7.5t40 -9t38 -11.5t34 -14.5t28.5 -18.5t22 -23.5t15 -28.5t6 -34.5t-4 -41.5q-13 -63 -48.5 -108.5t-85.5 -69.5t-101.5 -34.5t-108.5 -10.5
q-146 0 -219 59t-52 195h74q-13 -105 42 -145.5t169 -40.5q94 0 162 32.5t85 109.5q8 36 -5 61t-47 39.5t-67 22t-85 16.5q-17 3 -26 4q-129 21 -183.5 64t-37.5 126q15 74 68.5 122.5t117.5 66.5t139 18q46 0 85.5 -6.5t75 -23t58 -41t32 -63.5t1.5 -88zM699 911l-172 -142
h-80l-114 142h75l87 -101l129 101h75z" />
    <glyph glyph-name="scaron" unicode="&#x161;" horiz-adv-x="556" 
d="M588 366h-68q-2 61 -38 84.5t-119 23.5q-148 0 -168 -89q-10 -39 23.5 -54.5t151.5 -31.5q122 -17 165 -47t28 -103q-16 -79 -87.5 -122t-193.5 -43q-127 0 -186.5 44t-39.5 135h68q-4 -65 34 -91t137 -26q84 0 133.5 21.5t60.5 77.5q8 40 -28.5 59.5t-151.5 31.5
q-120 12 -161.5 44.5t-27.5 101.5q14 70 80 112t176 42q122 0 172 -43t40 -127zM600 741l-172 -142h-80l-114 142h75l87 -101l129 101h75z" />
    <glyph glyph-name="Tcommaaccent" unicode="&#x162;" horiz-adv-x="630" 
d="M278 0l134 646h-280l14 68h634l-14 -68h-280l-134 -646h-74zM248 -150l21 100h76l-19 -91q-16 -73 -96 -79l6 31q36 8 42 39h-30z" />
    <glyph glyph-name="tcommaaccent" unicode="&#x163;" horiz-adv-x="352" 
d="M215 520l34 164h74l-34 -164h147l-12 -56h-147l-72 -344q-7 -36 5.5 -51t55.5 -15q44 0 74 6l-13 -62q-43 -6 -82 -6q-81 0 -104 31t-9 98l71 343h-113l12 56h113zM162 -150l21 100h76l-19 -91q-16 -73 -96 -79l6 31q36 8 42 39h-30z" />
    <glyph glyph-name="Tcaron" unicode="&#x164;" horiz-adv-x="630" 
d="M278 0l134 646h-280l14 68h634l-14 -68h-280l-134 -646h-74zM681 911l-172 -142h-80l-114 142h75l87 -101l129 101h75z" />
    <glyph glyph-name="tcaron" unicode="&#x165;" horiz-adv-x="381" 
d="M418 578l54 142h83l-86 -142h-51zM215 520l34 164h74l-34 -164h147l-12 -56h-147l-72 -344q-7 -36 5.5 -51t55.5 -15q44 0 74 6l-13 -62q-43 -6 -82 -6q-81 0 -104 31t-9 98l71 343h-113l12 56h113z" />
    <glyph glyph-name="Tbar" unicode="&#x166;" horiz-adv-x="630" 
d="M173 390l13 56h184l42 200h-280l14 68h634l-14 -68h-280l-42 -200h188l-12 -56h-187l-81 -390h-74l81 390h-186z" />
    <glyph glyph-name="tbar" unicode="&#x167;" horiz-adv-x="352" 
d="M42 278l13 56h121l27 130h-113l12 56h113l34 164h74l-34 -164h147l-12 -56h-147l-28 -130h158l-12 -56h-157l-33 -158q-7 -36 5.5 -51t55.5 -15q44 0 74 6l-13 -62q-43 -6 -82 -6q-81 0 -104 31t-9 98l32 157h-122z" />
    <glyph glyph-name="Utilde" unicode="&#x168;" horiz-adv-x="778" 
d="M856 714l-91 -438q-9 -45 -22.5 -81.5t-41.5 -78t-67.5 -69.5t-103.5 -46.5t-145 -18.5t-137.5 18.5t-84 47t-39 69.5t-9.5 77.5t12 81.5l91 438h74l-91 -438q-14 -56 -6.5 -95.5t23.5 -65t47 -40t62.5 -20t71.5 -5.5q244 0 292 226l91 438h74zM706 894h44
q-19 -45 -42 -70q-34 -38 -84 -38q-38 0 -84 26q-50 26 -74 26q-20 0 -34.5 -9.5t-19.5 -18.5t-11 -24h-44q46 108 126 108q38 0 84 -26q50 -26 74 -26q20 0 34.5 9.5t19.5 18.5t11 24z" />
    <glyph glyph-name="utilde" unicode="&#x169;" horiz-adv-x="630" 
d="M499 0l21 102h-2q-29 -47 -94.5 -82.5t-145.5 -35.5q-122 0 -161.5 56.5t-18.5 157.5l67 322h74l-70 -335q-28 -139 128 -139q106 0 169 50t82 142l59 282h74l-108 -520h-74zM602 724h44q-19 -45 -42 -70q-34 -38 -84 -38q-38 0 -84 26q-50 26 -74 26q-20 0 -34.5 -9.5
t-19.5 -18.5t-11 -24h-44q46 108 126 108q38 0 84 -26q50 -26 74 -26q20 0 34.5 9.5t19.5 18.5t11 24z" />
    <glyph glyph-name="Umacron" unicode="&#x16a;" horiz-adv-x="778" 
d="M856 714l-91 -438q-9 -45 -22.5 -81.5t-41.5 -78t-67.5 -69.5t-103.5 -46.5t-145 -18.5t-137.5 18.5t-84 47t-39 69.5t-9.5 77.5t12 81.5l91 438h74l-91 -438q-14 -56 -6.5 -95.5t23.5 -65t47 -40t62.5 -20t71.5 -5.5q244 0 292 226l91 438h74zM358 812l13 56h386
l-12 -56h-387z" />
    <glyph glyph-name="umacron" unicode="&#x16b;" horiz-adv-x="630" 
d="M499 0l21 102h-2q-29 -47 -94.5 -82.5t-145.5 -35.5q-122 0 -161.5 56.5t-18.5 157.5l67 322h74l-70 -335q-28 -139 128 -139q106 0 169 50t82 142l59 282h74l-108 -520h-74zM248 642l13 56h386l-12 -56h-387z" />
    <glyph glyph-name="Ubreve" unicode="&#x16c;" horiz-adv-x="778" 
d="M856 714l-91 -438q-9 -45 -22.5 -81.5t-41.5 -78t-67.5 -69.5t-103.5 -46.5t-145 -18.5t-137.5 18.5t-84 47t-39 69.5t-9.5 77.5t12 81.5l91 438h74l-91 -438q-14 -56 -6.5 -95.5t23.5 -65t47 -40t62.5 -20t71.5 -5.5q244 0 292 226l91 438h74zM394 906h50
q-6 -41 19 -58.5t80 -17.5q109 0 131 76h50q-39 -132 -193 -132q-74 0 -109.5 32.5t-27.5 99.5z" />
    <glyph glyph-name="ubreve" unicode="&#x16d;" horiz-adv-x="630" 
d="M499 0l21 102h-2q-29 -47 -94.5 -82.5t-145.5 -35.5q-122 0 -161.5 56.5t-18.5 157.5l67 322h74l-70 -335q-28 -139 128 -139q106 0 169 50t82 142l59 282h74l-108 -520h-74zM287 736h50q-6 -41 19 -58.5t80 -17.5q109 0 131 76h50q-39 -132 -193 -132q-74 0 -109.5 32.5
t-27.5 99.5z" />
    <glyph glyph-name="Uring" unicode="&#x16e;" horiz-adv-x="778" 
d="M856 714l-91 -438q-9 -45 -22.5 -81.5t-41.5 -78t-67.5 -69.5t-103.5 -46.5t-145 -18.5t-137.5 18.5t-84 47t-39 69.5t-9.5 77.5t12 81.5l91 438h74l-91 -438q-14 -56 -6.5 -95.5t23.5 -65t47 -40t62.5 -20t71.5 -5.5q244 0 292 226l91 438h74zM492 864q-7 -30 10 -51
t47 -21t55 21t32 51q6 30 -10.5 51t-46.5 21t-55.5 -21t-31.5 -51zM454 864q8 44 48 77t84 33q46 0 71 -32t17 -78q-10 -46 -49 -78t-84 -32t-71 32t-16 78z" />
    <glyph glyph-name="uring" unicode="&#x16f;" horiz-adv-x="630" 
d="M499 0l21 102h-2q-29 -47 -94.5 -82.5t-145.5 -35.5q-122 0 -161.5 56.5t-18.5 157.5l67 322h74l-70 -335q-28 -139 128 -139q106 0 169 50t82 142l59 282h74l-108 -520h-74zM381 700q-7 -30 10 -51t47 -21t55 21t32 51q6 30 -10.5 51t-46.5 21t-55.5 -21t-31.5 -51z
M343 700q8 44 48 77t84 33q46 0 71 -32t17 -78q-10 -46 -49 -78t-84 -32t-71 32t-16 78z" />
    <glyph glyph-name="Uhungarumlaut" unicode="&#x170;" horiz-adv-x="778" 
d="M856 714l-91 -438q-9 -45 -22.5 -81.5t-41.5 -78t-67.5 -69.5t-103.5 -46.5t-145 -18.5t-137.5 18.5t-84 47t-39 69.5t-9.5 77.5t12 81.5l91 438h74l-91 -438q-14 -56 -6.5 -95.5t23.5 -65t47 -40t62.5 -20t71.5 -5.5q244 0 292 226l91 438h74zM615 769l144 142h91
l-174 -142h-61zM393 769l144 142h91l-174 -142h-61z" />
    <glyph glyph-name="uhungarumlaut" unicode="&#x171;" horiz-adv-x="630" 
d="M499 0l21 102h-2q-29 -47 -94.5 -82.5t-145.5 -35.5q-122 0 -161.5 56.5t-18.5 157.5l67 322h74l-70 -335q-28 -139 128 -139q106 0 169 50t82 142l59 282h74l-108 -520h-74zM513 599l144 142h91l-174 -142h-61zM291 599l144 142h91l-174 -142h-61z" />
    <glyph glyph-name="Uogonek" unicode="&#x172;" horiz-adv-x="778" 
d="M459 -144l4 -35q-48 -23 -105 -23q-55 0 -76.5 22.5t-12.5 60.5q9 40 52 76q6 5 37 26q-54 1 -93 12q-58 15 -93 45t-45.5 71t-10 79.5t10.5 85.5l91 438h74l-91 -438q-14 -56 -6.5 -95.5t23.5 -65t47 -40t62.5 -20t71.5 -5.5q244 0 292 226l91 438h74l-91 -438
q-19 -91 -64.5 -159.5t-140.5 -107.5q-60 -23 -145 -26q-25 -18 -50 -41q-27 -27 -34 -55q-5 -23 7.5 -34.5t35.5 -11.5q33 0 85 15z" />
    <glyph glyph-name="uogonek" unicode="&#x173;" horiz-adv-x="630" 
d="M568 -144l4 -35q-48 -23 -102 -23q-53 0 -74 22.5t-12 60.5q4 24 18 42q11 15 32 34q20 16 65 43l21 102h-2q-29 -47 -94.5 -82.5t-145.5 -35.5q-122 0 -161.5 56.5t-18.5 157.5l67 322h74l-70 -335q-28 -139 128 -139q106 0 169 50t82 142l59 282h74l-108 -520h-23
q-52 -37 -76 -61t-30 -52q-5 -23 7 -34.5t34 -11.5q35 0 83 15z" />
    <glyph glyph-name="Wcircumflex" unicode="&#x174;" horiz-adv-x="1056" 
d="M807 98l328 616h80l-388 -714h-86l-89 610h-2l-338 -610h-86l-89 714h83l70 -616h2l339 616h91l83 -616h2zM504 769l172 142h80l114 -142h-75l-87 101l-129 -101h-75z" />
    <glyph glyph-name="wcircumflex" unicode="&#x175;" horiz-adv-x="889" 
d="M662 97l255 423h80l-319 -520h-80l-71 416l-241 -416h-80l-98 520h80l76 -426l246 426h80zM381 599l172 142h80l114 -142h-75l-87 101l-129 -101h-75z" />
    <glyph glyph-name="Ycircumflex" unicode="&#x176;" horiz-adv-x="686" 
d="M306 0l62 300l-235 414h96l191 -340l333 340h96l-407 -414l-62 -300h-74zM320 769l172 142h80l114 -142h-75l-87 101l-129 -101h-75z" />
    <glyph glyph-name="ycircumflex" unicode="&#x177;" horiz-adv-x="556" 
d="M304 87l286 433h80l-411 -617q-42 -62 -77 -83.5t-96 -21.5h-36q-13 0 -35 2l13 62q32 -2 52 -2q41 0 66.5 13t50.5 51l49 72l-144 524h80zM228 599l172 142h80l114 -142h-75l-87 101l-129 -101h-75z" />
    <glyph glyph-name="Ydieresis" unicode="&#x178;" horiz-adv-x="686" 
d="M306 0l62 300l-235 414h96l191 -340l333 340h96l-407 -414l-62 -300h-74zM573 785l23 110h74l-23 -110h-74zM347 785l23 110h74l-23 -110h-74z" />
    <glyph glyph-name="Zacute" unicode="&#x179;" horiz-adv-x="648" 
d="M5 0l14 68l650 578h-496l14 68h596l-14 -68l-653 -578h541l-14 -68h-638zM449 769l144 142h91l-174 -142h-61z" />
    <glyph glyph-name="zacute" unicode="&#x17a;" horiz-adv-x="556" 
d="M20 0l12 62l478 396h-372l13 62h478l-13 -62l-486 -396h418l-12 -62h-516zM361 599l144 142h91l-174 -142h-61z" />
    <glyph glyph-name="Zdotaccent" unicode="&#x17b;" horiz-adv-x="648" 
d="M5 0l14 68l650 578h-496l14 68h596l-14 -68l-653 -578h541l-14 -68h-638zM448 785l23 110h74l-23 -110h-74z" />
    <glyph glyph-name="zdotaccent" unicode="&#x17c;" horiz-adv-x="556" 
d="M20 0l12 62l478 396h-372l13 62h478l-13 -62l-486 -396h418l-12 -62h-516zM356 615l23 110h74l-23 -110h-74z" />
    <glyph glyph-name="Zcaron" unicode="&#x17d;" horiz-adv-x="648" 
d="M5 0l14 68l650 578h-496l14 68h596l-14 -68l-653 -578h541l-14 -68h-638zM696 911l-172 -142h-80l-114 142h75l87 -101l129 101h75z" />
    <glyph glyph-name="zcaron" unicode="&#x17e;" horiz-adv-x="556" 
d="M20 0l12 62l478 396h-372l13 62h478l-13 -62l-486 -396h418l-12 -62h-516zM601 741l-172 -142h-80l-114 142h75l87 -101l129 101h75z" />
    <glyph glyph-name="florin" unicode="&#x192;" horiz-adv-x="668" 
d="M235 356l18 44h135l65 156q26 64 63 99.5t68 44t72 8.5q33 0 83 -8l-23 -60q-46 6 -68 6q-46 0 -74 -21.5t-58 -94.5l-54 -130h139l-20 -44h-137l-156 -371q-18 -43 -33 -69.5t-39.5 -55.5t-59.5 -42.5t-81 -13.5q-39 0 -86 7l24 60q35 -5 66 -5q55 0 80.5 24t61.5 109
l149 357h-135z" />
    <glyph glyph-name="Scommaaccent" unicode="&#x218;" horiz-adv-x="668" 
d="M730 510h-74q11 85 -42 119.5t-150 34.5q-89 0 -153 -34t-76 -92q-13 -65 38.5 -92.5t192.5 -51.5q24 -4 41.5 -7.5t40 -9t38 -11.5t34 -14.5t28.5 -18.5t22 -23.5t15 -28.5t6 -34.5t-4 -41.5q-13 -63 -48.5 -108.5t-85.5 -69.5t-101.5 -34.5t-108.5 -10.5
q-146 0 -219 59t-52 195h74q-13 -105 42 -145.5t169 -40.5q94 0 162 32.5t85 109.5q8 36 -5 61t-47 39.5t-67 22t-85 16.5q-17 3 -26 4q-129 21 -183.5 64t-37.5 126q15 74 68.5 122.5t117.5 66.5t139 18q46 0 85.5 -6.5t75 -23t58 -41t32 -63.5t1.5 -88zM277 -150l21 100
h76l-19 -91q-16 -73 -96 -79l6 31q36 8 42 39h-30z" />
    <glyph glyph-name="scommaaccent" unicode="&#x219;" horiz-adv-x="556" 
d="M588 366h-68q-2 61 -38 84.5t-119 23.5q-148 0 -168 -89q-10 -39 23.5 -54.5t151.5 -31.5q122 -17 165 -47t28 -103q-16 -79 -87.5 -122t-193.5 -43q-127 0 -186.5 44t-39.5 135h68q-4 -65 34 -91t137 -26q84 0 133.5 21.5t60.5 77.5q8 40 -28.5 59.5t-151.5 31.5
q-120 12 -161.5 44.5t-27.5 101.5q14 70 80 112t176 42q122 0 172 -43t40 -127zM225 -150l21 100h76l-19 -91q-16 -73 -96 -79l6 31q36 8 42 39h-30z" />
    <glyph glyph-name="uni021A" unicode="&#x21a;" horiz-adv-x="630" 
d="M278 0l134 646h-280l14 68h634l-14 -68h-280l-134 -646h-74zM248 -150l21 100h76l-19 -91q-16 -73 -96 -79l6 31q36 8 42 39h-30z" />
    <glyph glyph-name="uni021B" unicode="&#x21b;" horiz-adv-x="352" 
d="M215 520l34 164h74l-34 -164h147l-12 -56h-147l-72 -344q-7 -36 5.5 -51t55.5 -15q44 0 74 6l-13 -62q-43 -6 -82 -6q-81 0 -104 31t-9 98l71 343h-113l12 56h113zM162 -150l21 100h76l-19 -91q-16 -73 -96 -79l6 31q36 8 42 39h-30z" />
    <glyph glyph-name="circumflex" unicode="&#x2c6;" 
d="M33 599l172 142h80l114 -142h-75l-87 101l-129 -101h-75z" />
    <glyph glyph-name="caron" unicode="&#x2c7;" 
d="M428 741l-172 -142h-80l-114 142h75l87 -101l129 101h75z" />
    <glyph glyph-name="uni02C9" unicode="&#x2c9;" 
d="M168 642l13 56h386l-12 -56h-387z" />
    <glyph glyph-name="breve" unicode="&#x2d8;" 
d="M79 736h50q-6 -41 19 -58.5t80 -17.5q109 0 131 76h50q-39 -132 -193 -132q-74 0 -109.5 32.5t-27.5 99.5z" />
    <glyph glyph-name="dotaccent" unicode="&#x2d9;" 
d="M180 615l23 110h74l-23 -110h-74z" />
    <glyph glyph-name="ring" unicode="&#x2da;" 
d="M159 700q-7 -30 10 -51t47 -21t55 21t32 51q6 30 -10.5 51t-46.5 21t-55.5 -21t-31.5 -51zM121 700q8 44 48 77t84 33q46 0 71 -32t17 -78q-10 -46 -49 -78t-84 -32t-71 32t-16 78z" />
    <glyph glyph-name="ogonek" unicode="&#x2db;" 
d="M171 -144l4 -35q-48 -23 -105 -23q-55 0 -76.5 22.5t-12.5 60.5q4 22 19 42q27 34 100 77h53q-53 -36 -77.5 -60t-32.5 -53q-5 -23 7.5 -34.5t35.5 -11.5q33 0 85 15z" />
    <glyph glyph-name="tilde" unicode="&#x2dc;" 
d="M383 724h44q-19 -45 -42 -70q-34 -38 -84 -38q-38 0 -84 26q-50 26 -74 26q-20 0 -34.5 -9.5t-19.5 -18.5t-11 -24h-44q46 108 126 108q38 0 84 -26q50 -26 74 -26q20 0 34.5 9.5t19.5 18.5t11 24z" />
    <glyph glyph-name="hungarumlaut" unicode="&#x2dd;" 
d="M263 599l144 142h91l-174 -142h-61zM41 599l144 142h91l-174 -142h-61z" />
    <glyph glyph-name="uni0394" unicode="&#x394;" horiz-adv-x="670" 
d="M501 62l-103 577l-349 -577h452zM583 0h-642l433 712h73z" />
    <glyph glyph-name="uni03A9" unicode="&#x3a9;" horiz-adv-x="745" 
d="M700 454q0 -123 -68.5 -209t-189.5 -106l-18 -85h197l-12 -54h-250l39 182q54 9 70 15q78 28 121.5 98t43.5 157q0 96 -59.5 152.5t-156.5 56.5q-124 0 -210 -93t-86 -218q0 -68 37 -115t104 -53l-39 -182h-243l12 54h186l20 89q-71 21 -107.5 77.5t-36.5 133.5
q0 147 109 257t255 110q122 0 202 -73t80 -194z" />
    <glyph glyph-name="uni03BC" unicode="&#x3bc;" horiz-adv-x="630" 
d="M499 0l20 102h-2q-26 -46 -93 -82t-147 -36q-102 0 -140 50l-49 -236h-73l149 722h74l-70 -335q-15 -73 22.5 -106t105.5 -33q106 0 169 50t82 142l59 282h74l-107 -520h-74z" />
    <glyph glyph-name="pi" unicode="&#x3c0;" horiz-adv-x="563" 
d="M559 478l-13 -59h-77l-63 -299q-8 -40 -8 -48q0 -23 29 -23q13 0 46 11l-10 -49q-40 -17 -66 -17q-28 0 -47.5 13t-19.5 40q0 17 9 64l66 308h-254l-88 -419h-65l89 419h-74l13 59h533z" />
    <glyph glyph-name="endash" unicode="&#x2013;" horiz-adv-x="500" 
d="M50 243l13 62h500l-13 -62h-500z" />
    <glyph glyph-name="emdash" unicode="&#x2014;" horiz-adv-x="1000" 
d="M50 243l13 62h1000l-13 -62h-1000z" />
    <glyph glyph-name="quoteleft" unicode="&#x2018;" horiz-adv-x="278" 
d="M192 464l23 112q26 113 124 138l-8 -38q-31 -13 -44 -36t-22 -66h36l-23 -110h-86z" />
    <glyph glyph-name="quoteright" unicode="&#x2019;" horiz-adv-x="278" 
d="M221 604l23 110h86l-23 -112q-26 -113 -124 -138l8 38q31 13 44 36t22 66h-36z" />
    <glyph glyph-name="quotesinglbase" unicode="&#x201a;" horiz-adv-x="278" 
d="M96 0l22 110h86l-23 -112q-23 -113 -124 -138l8 38q31 13 44.5 36t22.5 66h-36z" />
    <glyph glyph-name="quotedblleft" unicode="&#x201c;" horiz-adv-x="407" 
d="M167 464l23 112q26 113 124 138l-8 -38q-31 -13 -44 -36t-22 -66h36l-23 -110h-86zM346 464l23 112q26 113 124 138l-8 -38q-31 -13 -44 -36t-22 -66h36l-23 -110h-86z" />
    <glyph glyph-name="quotedblright" unicode="&#x201d;" horiz-adv-x="407" 
d="M196 604l23 110h86l-23 -112q-26 -113 -124 -138l8 38q31 13 44 36t22 66h-36zM375 604l23 110h86l-23 -112q-26 -113 -124 -138l8 38q31 13 44 36t22 66h-36z" />
    <glyph glyph-name="quotedblbase" unicode="&#x201e;" horiz-adv-x="407" 
d="M250 0l22 110h86l-23 -112q-23 -113 -124 -138l8 38q31 13 44.5 36t22.5 66h-36zM71 0l22 110h86l-23 -112q-23 -113 -124 -138l8 38q31 13 44.5 36t22.5 66h-36z" />
    <glyph glyph-name="dagger" unicode="&#x2020;" horiz-adv-x="668" 
d="M264 -156l121 581h-241l13 62h241l47 227h74l-47 -227h241l-13 -62h-241l-121 -581h-74z" />
    <glyph glyph-name="daggerdbl" unicode="&#x2021;" horiz-adv-x="668" 
d="M264 -156l45 217h-241l13 62h241l66 317h-241l13 62h241l44 212h74l-44 -212h241l-13 -62h-241l-66 -317h241l-13 -62h-241l-45 -217h-74z" />
    <glyph glyph-name="bullet" unicode="&#x2022;" horiz-adv-x="501" 
d="M146 357q14 74 77.5 126.5t137.5 52.5t115 -52t27 -127q-16 -74 -79 -126t-137 -52t-115.5 52t-25.5 126z" />
    <glyph glyph-name="ellipsis" unicode="&#x2026;" horiz-adv-x="1000" 
d="M790 0l22 110h86l-22 -110h-86zM457 0l22 110h86l-22 -110h-86zM124 0l22 110h86l-22 -110h-86z" />
    <glyph glyph-name="perthousand" unicode="&#x2030;" horiz-adv-x="1167" 
d="M601 34q54 0 91.5 38t51.5 106t-8 106t-76 38t-91 -37.5t-51 -106.5q-14 -68 7.5 -106t75.5 -38zM590 -16q-78 0 -116 50.5t-18 143.5t78.5 143.5t136.5 50.5q77 0 116 -50.5t19 -143.5t-79 -143.5t-137 -50.5zM247 320q-77 0 -116 50.5t-19 143.5t79 143.5t137 50.5
t116 -50.5t18 -143.5t-78.5 -143.5t-136.5 -50.5zM982 -16q-78 0 -116 50.5t-18 143.5t78.5 143.5t136.5 50.5q77 0 116 -50.5t19 -143.5t-79 -143.5t-137 -50.5zM257 370q54 0 91.5 38t51.5 106t-7.5 106t-75.5 38t-91.5 -38t-51.5 -106t7.5 -106t75.5 -38zM116 -16
l627 724h59l-627 -724h-59zM993 34q54 0 91.5 38t51.5 106t-8 106t-76 38t-91 -37.5t-51 -106.5q-14 -68 7.5 -106t75.5 -38z" />
    <glyph glyph-name="guilsinglleft" unicode="&#x2039;" horiz-adv-x="315" 
d="M122 238l15 72l185 135l-16 -77l-133 -94l94 -94l-16 -77z" />
    <glyph glyph-name="guilsinglright" unicode="&#x203a;" horiz-adv-x="315" 
d="M254 274l-93 94l16 77l129 -135l-15 -72l-185 -135l16 77z" />
    <glyph glyph-name="fraction" unicode="&#x2044;" horiz-adv-x="167" 
d="M-166 -16l725 724h62l-725 -724h-62z" />
    <glyph glyph-name="Euro" unicode="&#x20ac;" horiz-adv-x="668" 
d="M785 613l-51 -60q-14 43 -58 67q-44 26 -124 26q-119 0 -194 -68q-51 -48 -78 -122h381l-38 -50h-360q-16 -51 -22 -107h305l-39 -50h-272q-5 -78 25 -130q46 -73 158 -73q83 0 156 35q51 26 102 73l-18 -86q-43 -34 -87 -52q-78 -32 -170 -32q-148 0 -206 96
q-42 67 -34 169h-100l39 50h67q6 56 22 107h-95l38 50h74q38 100 111 165q96 87 250 87q96 0 152 -31q41 -22 66 -64z" />
    <glyph glyph-name="afii61289" unicode="&#x2113;" horiz-adv-x="500" 
d="M453 626q0 -83 -68.5 -174.5t-171.5 -175.5q-37 -159 -37 -187q0 -31 16.5 -45t39.5 -14q42 0 100 42h2l16 -34q-68 -52 -131 -52q-45 0 -72.5 24t-27.5 69q0 23 29 157l-71 -62h-2l-17 33l102 84l56 266q17 82 56 123t92 41q39 0 64 -26.5t25 -68.5zM403 622
q0 25 -12.5 41.5t-31.5 16.5q-59 0 -84 -112l-51 -236q70 65 124.5 143.5t54.5 146.5z" />
    <glyph glyph-name="trademark" unicode="&#x2122;" horiz-adv-x="990" 
d="M733 380l197 334h86l-86 -412h-50l77 368h-2l-226 -368h-30l-72 368h-2l-77 -368h-50l86 412h86zM239 302l77 368h-135l9 44h320l-9 -44h-135l-77 -368h-50z" />
    <glyph glyph-name="Omega" unicode="&#x2126;" horiz-adv-x="745" 
d="M700 454q0 -123 -68.5 -209t-189.5 -106l-18 -85h197l-12 -54h-250l39 182q54 9 70 15q78 28 121.5 98t43.5 157q0 96 -59.5 152.5t-156.5 56.5q-124 0 -210 -93t-86 -218q0 -68 37 -115t104 -53l-39 -182h-243l12 54h186l20 89q-71 21 -107.5 77.5t-36.5 133.5
q0 147 109 257t255 110q122 0 202 -73t80 -194z" />
    <glyph glyph-name="estimated" unicode="&#x212e;" horiz-adv-x="600" 
d="M561 259h-404v-181q59 -59 145 -59q122 0 193 120l35 -21q-46 -72 -98 -103.5t-130 -31.5q-115 0 -186.5 79t-71.5 197q0 119 71 197.5t187 78.5q115 0 186.5 -77t72.5 -199zM157 295h291v145q-63 60 -147 60t-144 -60v-145z" />
    <glyph glyph-name="partialdiff" unicode="&#x2202;" horiz-adv-x="496" 
d="M369 278q-68 91 -155 91q-65 0 -101.5 -46t-36.5 -113q0 -66 36.5 -117.5t100.5 -51.5q41 0 72.5 23.5t48 61.5t25 75.5t10.5 76.5zM437 363q0 -50 -4.5 -96t-19.5 -99t-38.5 -91t-65.5 -63.5t-97 -25.5q-90 0 -144.5 66t-54.5 158q0 90 53 151.5t142 61.5q98 0 166 -84
q0 9 0.5 26t0.5 26q0 46 -9 90.5t-28.5 87t-56.5 69t-86 26.5q-52 0 -112 -46l-35 43q67 58 145 58q55 0 98.5 -22.5t70.5 -58t44.5 -84t24 -96t6.5 -97.5z" />
    <glyph glyph-name="Delta" unicode="&#x2206;" horiz-adv-x="670" 
d="M501 62l-103 577l-349 -577h452zM583 0h-642l433 712h73z" />
    <glyph glyph-name="product" unicode="&#x220f;" horiz-adv-x="711" 
d="M641 -214h-66v938h-438v-938h-66v1000h570v-1000z" />
    <glyph glyph-name="summation" unicode="&#x2211;" horiz-adv-x="604" 
d="M578 -214h-553v55l329 448l-315 441v56h527v-62h-442l309 -435l-328 -442h473v-61z" />
    <glyph glyph-name="minus" unicode="&#x2212;" horiz-adv-x="600" 
d="M94 228l10 50h506l-10 -50h-506z" />
    <glyph glyph-name="uni2215" unicode="&#x2215;" horiz-adv-x="167" 
d="M-166 -16l725 724h62l-725 -724h-62z" />
    <glyph glyph-name="uni2219" unicode="&#x2219;" horiz-adv-x="278" 
d="M201 312q12 27 39.5 46.5t54.5 19.5t38.5 -19.5t-0.5 -46.5q-11 -27 -38 -46.5t-54 -19.5t-39 19.5t-1 46.5z" />
    <glyph glyph-name="radical" unicode="&#x221a;" horiz-adv-x="493" 
d="M472 786l-211 -1000h-65l-165 340l-46 -22l-24 50l101 48l158 -332l189 916h63z" />
    <glyph glyph-name="infinity" unicode="&#x221e;" horiz-adv-x="741" 
d="M303 249q-3 2 -8 7q-28 25 -45.5 39t-47.5 29.5t-54 15.5q-37 0 -58.5 -26.5t-21.5 -63.5q0 -39 22.5 -63.5t61.5 -24.5q57 0 151 87zM613 249q0 40 -21.5 66t-61.5 26q-16 0 -32.5 -5.5t-34 -18t-28.5 -21t-31 -26t-25 -22.5q3 -3 13 -11.5t14 -12t13.5 -11.5t15 -11.5
t15 -10t16 -10t16 -8t17 -6.5t16.5 -3.5t18 -1.5q37 0 58.5 24.5t21.5 62.5zM670 252q0 -63 -38.5 -105.5t-101.5 -42.5q-52 0 -95.5 28.5t-93.5 78.5q-10 -8 -33.5 -28.5t-36.5 -30.5t-34 -23.5t-42 -19t-44 -5.5q-62 0 -101 41t-39 104t38 105.5t100 42.5q28 0 53.5 -8.5
t54.5 -30.5t40.5 -32t43.5 -41l22 22t25 23.5t23 19.5t27 20t26.5 13.5t31.5 11.5t32 3q63 0 102.5 -41t39.5 -105z" />
    <glyph glyph-name="integral" unicode="&#x222b;" horiz-adv-x="544" 
d="M406 736q0 -34 -37 -34q-21 0 -32.5 20t-18.5 20q-10 0 -17 -9.5t-11 -25.5t-6 -34t-2.5 -39t0 -36.5t1 -30t0.5 -16.5v-504q0 -122 -16 -173q-28 -87 -106 -87q-24 0 -42 12t-18 35q0 14 9.5 23t23.5 9q15 0 23.5 -9.5t14 -19t12.5 -9.5q32 0 32 128v31l1 21v495
q0 9 -0.5 37t-0.5 45t1.5 45.5t6 47.5t13 41.5t21 35.5t32.5 22t46 9q27 0 48.5 -12.5t21.5 -37.5z" />
    <glyph glyph-name="approxequal" unicode="&#x2248;" horiz-adv-x="593" 
d="M487 232h44q-7 -59 -37.5 -98.5t-86.5 -39.5q-45 0 -144 36.5t-133 36.5q-32 0 -52.5 -23.5t-26.5 -56.5h-45q22 140 123 140q45 0 144 -36.5t136 -36.5q62 0 78 78zM488 402h43q-7 -59 -37.5 -98t-85.5 -39q-45 0 -144.5 36.5t-133.5 36.5q-32 0 -52.5 -23.5
t-26.5 -56.5h-45q7 59 37.5 99t86.5 40q45 0 143 -36.5t136 -36.5q63 0 79 78z" />
    <glyph glyph-name="notequal" unicode="&#x2260;" horiz-adv-x="593" 
d="M520 120h-288l-76 -144l-52 27l62 117h-148v60h180l69 130h-249v60h281l77 147l52 -28l-63 -119h155v-60h-187l-69 -130h256v-60z" />
    <glyph glyph-name="lessequal" unicode="&#x2264;" horiz-adv-x="593" 
d="M520 -27h-502v59h502v-59zM520 75l-502 188v65l502 189v-65l-420 -157l420 -155v-65z" />
    <glyph glyph-name="greaterequal" unicode="&#x2265;" horiz-adv-x="593" 
d="M520 -27h-502v59h502v-59zM520 263l-502 -188v65l419 155l-419 157v65l502 -189v-65z" />
    <glyph glyph-name="lozenge" unicode="&#x25ca;" horiz-adv-x="593" 
d="M433 356l-137 325l-136 -325l136 -325zM498 356l-171 -391h-63l-169 391l169 391h63z" />
    <glyph glyph-name="commaaccent" unicode="&#xf004;" horiz-adv-x="278" 
d="M107 -150l21 100h76l-19 -91q-16 -73 -96 -79l6 31q36 8 42 39h-30z" />
    <glyph glyph-name="commaaccent" unicode="&#xf6c3;" horiz-adv-x="278" 
d="M107 -150l21 100h76l-19 -91q-16 -73 -96 -79l6 31q36 8 42 39h-30z" />
    <glyph glyph-name="dotlessj" unicode="&#xf6be;" 
d="M-121 -217l13 62q16 -3 50 -3q47 0 67 18.5t29 60.5l125 599h74l-125 -599q-28 -141 -163 -141q-1 0 -70 3z" />
    <glyph glyph-name="dotlessj" unicode="&#xfb0f;" 
d="M-121 -217l13 62q16 -3 50 -3q47 0 67 18.5t29 60.5l125 599h74l-125 -599q-28 -141 -163 -141q-1 0 -70 3z" />
    <glyph glyph-name="uniF8FF" unicode="&#xf8ff;" horiz-adv-x="512" 
d="M222 117h56v67h-56v-67zM225 234h46q0 52 6 72q6 19 43 52q37 34 50 60t13 60q0 59 -35 95t-89 36q-56 0 -92 -34t-43 -103l50 -8q11 95 82 95q31 0 53.5 -24.5t22.5 -60.5q0 -20 -9.5 -37t-40.5 -46q-31 -31 -46 -59q-13 -25 -13 -81zM462 50h-412v617h412v-617z
M512 718h-512v-718h512v718z" />
    <glyph glyph-name="commaaccent.alt" horiz-adv-x="278" 
d="M180 720l-21 -100h-76l19 91q16 73 97 79l-7 -31q-33 -8 -42 -39h30z" />
    <glyph glyph-name="caron.alt" 
d="M199 578l54 142h83l-86 -142h-51z" />
    <glyph glyph-name="grave.cap" 
d="M194 741l86 -142h-61l-116 142h91z" />
    <glyph glyph-name="acute.cap" 
d="M152 599l144 142h91l-174 -142h-61z" />
    <glyph glyph-name="circumflex.cap" 
d="M33 599l172 142h80l114 -142h-75l-87 101l-129 -101h-75z" />
    <glyph glyph-name="caron.cap" 
d="M428 741l-172 -142h-80l-114 142h75l87 -101l129 101h75z" />
    <glyph glyph-name="tilde.cap" 
d="M383 724h44q-19 -45 -42 -70q-34 -38 -84 -38q-38 0 -84 26q-50 26 -74 26q-20 0 -34.5 -9.5t-19.5 -18.5t-11 -24h-44q46 108 126 108q38 0 84 -26q50 -26 74 -26q20 0 34.5 9.5t19.5 18.5t11 24z" />
    <glyph glyph-name="dieresis.cap" 
d="M293 615l23 110h74l-23 -110h-74zM67 615l23 110h74l-23 -110h-74z" />
    <glyph glyph-name="macron.cap" 
d="M168 642l13 56h386l-12 -56h-387z" />
    <glyph glyph-name="breve.cap" 
d="M79 736h50q-6 -41 19 -58.5t80 -17.5q109 0 131 76h50q-39 -132 -193 -132q-74 0 -109.5 32.5t-27.5 99.5z" />
    <glyph glyph-name="ring.cap" 
d="M159 700q-7 -30 10 -51t47 -21t55 21t32 51q6 30 -10.5 51t-46.5 21t-55.5 -21t-31.5 -51zM121 700q8 44 48 77t84 33q46 0 71 -32t17 -78q-10 -46 -49 -78t-84 -32t-71 32t-16 78z" />
    <glyph glyph-name="hungarumlaut.cap" 
d="M263 599l144 142h91l-174 -142h-61zM41 599l144 142h91l-174 -142h-61z" />
    <glyph glyph-name="dotaccent.cap" 
d="M180 615l23 110h74l-23 -110h-74z" />
    </font>
</defs>
</svg>
